{
  "version": "1.1.6",
  "modules": [
    {
      "id": 1,
      "plugin": "Core",
      "version": "1.1.6",
      "model": "AudioInterface",
      "params": [],
      "leftModuleId": 9,
      "data": {
        "audio": {
          "driver": 5,
          "deviceName": "Apple Inc.: Built-in Output",
          "offset": 0,
          "maxChannels": 8,
          "sampleRate": 44100,
          "blockSize": 256
        }
      },
      "pos": [
        98,
        0
      ]
    },
    {
      "id": 2,
      "plugin": "Fundamental",
      "version": "1.4.0",
      "model": "VCMixer",
      "params": [
        {
          "id": 0,
          "value": 0.982999802
        },
        {
          "id": 1,
          "value": 1.0
        },
        {
          "id": 2,
          "value": 1.0
        },
        {
          "id": 3,
          "value": 1.0
        },
        {
          "id": 4,
          "value": 1.0
        }
      ],
      "rightModuleId": 9,
      "pos": [
        80,
        0
      ]
    },
    {
      "id": 3,
      "plugin": "Fundamental",
      "version": "1.4.0",
      "model": "VCO",
      "params": [
        {
          "id": 0,
          "value": 0.0
        },
        {
          "id": 1,
          "value": 0.0
        },
        {
          "id": 2,
          "value": -8.74802685
        },
        {
          "id": 3,
          "value": -0.359999955
        },
        {
          "id": 4,
          "value": 0.894000113
        },
        {
          "id": 5,
          "value": 0.771950424
        },
        {
          "id": 6,
          "value": 0.457500011
        }
      ],
      "rightModuleId": 4,
      "pos": [
        35,
        0
      ]
    },
    {
      "id": 4,
      "plugin": "Fundamental",
      "version": "1.4.0",
      "model": "VCF",
      "params": [
        {
          "id": 0,
          "value": 1.0
        },
        {
          "id": 1,
          "value": 0.459499896
        },
        {
          "id": 2,
          "value": 0.0779999793
        },
        {
          "id": 3,
          "value": 1.0
        },
        {
          "id": 4,
          "value": 0.841500044
        }
      ],
      "leftModuleId": 3,
      "pos": [
        45,
        0
      ]
    },
    {
      "id": 6,
      "plugin": "Fundamental",
      "version": "1.4.0",
      "model": "ADSR",
      "params": [
        {
          "id": 0,
          "value": 0.571500003
        },
        {
          "id": 1,
          "value": 0.61700058
        },
        {
          "id": 2,
          "value": 0.712499797
        },
        {
          "id": 3,
          "value": 0.443500131
        }
      ],
      "pos": [
        45,
        1
      ]
    },
    {
      "id": 7,
      "plugin": "Fundamental",
      "version": "1.4.0",
      "model": "Scope",
      "params": [
        {
          "id": 0,
          "value": 0.0
        },
        {
          "id": 1,
          "value": 0.0
        },
        {
          "id": 2,
          "value": 0.0
        },
        {
          "id": 3,
          "value": 0.0
        },
        {
          "id": 4,
          "value": 14.0
        },
        {
          "id": 5,
          "value": 0.0
        },
        {
          "id": 6,
          "value": 0.0
        },
        {
          "id": 7,
          "value": 0.0
        }
      ],
      "data": {
        "lissajous": 0,
        "external": 0
      },
      "pos": [
        90,
        1
      ]
    },
    {
      "id": 9,
      "plugin": "Fundamental",
      "version": "1.4.0",
      "model": "Mutes",
      "params": [
        {
          "id": 0,
          "value": 0.0
        },
        {
          "id": 1,
          "value": 0.0
        },
        {
          "id": 2,
          "value": 0.0
        },
        {
          "id": 3,
          "value": 0.0
        },
        {
          "id": 4,
          "value": 0.0
        },
        {
          "id": 5,
          "value": 0.0
        },
        {
          "id": 6,
          "value": 0.0
        },
        {
          "id": 7,
          "value": 0.0
        },
        {
          "id": 8,
          "value": 0.0
        },
        {
          "id": 9,
          "value": 0.0
        }
      ],
      "leftModuleId": 2,
      "rightModuleId": 1,
      "data": {
        "states": [
          true,
          true,
          true,
          true,
          true,
          true,
          true,
          true,
          true,
          true
        ]
      },
      "pos": [
        90,
        0
      ]
    },
    {
      "id": 11,
      "plugin": "Fundamental",
      "version": "1.4.0",
      "model": "SEQ3",
      "params": [
        {
          "id": 0,
          "value": 2.39599729
        },
        {
          "id": 1,
          "value": 0.0
        },
        {
          "id": 2,
          "value": 0.0
        },
        {
          "id": 3,
          "value": 8.0
        },
        {
          "id": 4,
          "value": 0.0
        },
        {
          "id": 5,
          "value": 0.0
        },
        {
          "id": 6,
          "value": 0.0
        },
        {
          "id": 7,
          "value": 0.0
        },
        {
          "id": 8,
          "value": 0.0
        },
        {
          "id": 9,
          "value": 0.0
        },
        {
          "id": 10,
          "value": 0.0
        },
        {
          "id": 11,
          "value": 0.0
        },
        {
          "id": 12,
          "value": 4.0
        },
        {
          "id": 13,
          "value": 2.0
        },
        {
          "id": 14,
          "value": 3.0
        },
        {
          "id": 15,
          "value": 0.0
        },
        {
          "id": 16,
          "value": 0.0
        },
        {
          "id": 17,
          "value": 3.0
        },
        {
          "id": 18,
          "value": 4.5
        },
        {
          "id": 19,
          "value": 0.0
        },
        {
          "id": 20,
          "value": 2.51999998
        },
        {
          "id": 21,
          "value": 0.0
        },
        {
          "id": 22,
          "value": 1.48500001
        },
        {
          "id": 23,
          "value": 2.85000014
        },
        {
          "id": 24,
          "value": 3.82500052
        },
        {
          "id": 25,
          "value": 2.59500003
        },
        {
          "id": 26,
          "value": 1.4549998
        },
        {
          "id": 27,
          "value": 4.66500044
        },
        {
          "id": 28,
          "value": 0.0
        },
        {
          "id": 29,
          "value": 0.0
        },
        {
          "id": 30,
          "value": 0.0
        },
        {
          "id": 31,
          "value": 0.0
        },
        {
          "id": 32,
          "value": 0.0
        },
        {
          "id": 33,
          "value": 0.0
        },
        {
          "id": 34,
          "value": 0.0
        },
        {
          "id": 35,
          "value": 0.0
        }
      ],
      "data": {
        "running": true,
        "gates": [
          1,
          1,
          1,
          1,
          1,
          1,
          1,
          1
        ]
      },
      "pos": [
        0,
        0
      ]
    },
    {
      "id": 13,
      "plugin": "AudibleInstruments",
      "version": "1.5.0",
      "model": "Ripples",
      "params": [
        {
          "id": 0,
          "value": 0.763499916
        },
        {
          "id": 1,
          "value": 7.87472439
        },
        {
          "id": 2,
          "value": 0.0409998894
        }
      ],
      "rightModuleId": 15,
      "pos": [
        55,
        0
      ]
    },
    {
      "id": 15,
      "plugin": "Befaco",
      "version": "1.0.1",
      "model": "SpringReverb",
      "params": [
        {
          "id": 0,
          "value": 0.326000184
        },
        {
          "id": 1,
          "value": 0.704999864
        },
        {
          "id": 2,
          "value": 1.0
        },
        {
          "id": 3,
          "value": 0.325000048
        }
      ],
      "leftModuleId": 13,
      "rightModuleId": 19,
      "pos": [
        63,
        0
      ]
    },
    {
      "id": 18,
      "plugin": "NYSTHI",
      "version": "1.0.16",
      "model": "QuadSimplerSlicerQuantizer",
      "params": [],
      "data": {
        "m_param_values0": 16,
        "m_param_values1": 16,
        "m_param_values2": 16,
        "m_param_values3": 16,
        "m_subdivision_mode": 10
      },
      "pos": [
        26,
        0
      ]
    },
    {
      "id": 19,
      "plugin": "Fundamental",
      "version": "1.4.0",
      "model": "VCA",
      "params": [
        {
          "id": 0,
          "value": 1.0
        },
        {
          "id": 1,
          "value": 1.0
        }
      ],
      "leftModuleId": 15,
      "pos": [
        71,
        0
      ]
    }
  ],
  "cables": [
    {
      "id": 298,
      "outputModuleId": 2,
      "outputId": 0,
      "inputModuleId": 9,
      "inputId": 0,
      "color": "#0986ad"
    },
    {
      "id": 299,
      "outputModuleId": 2,
      "outputId": 0,
      "inputModuleId": 9,
      "inputId": 1,
      "color": "#c9b70e"
    },
    {
      "id": 306,
      "outputModuleId": 9,
      "outputId": 0,
      "inputModuleId": 1,
      "inputId": 0,
      "color": "#c91847"
    },
    {
      "id": 307,
      "outputModuleId": 9,
      "outputId": 1,
      "inputModuleId": 1,
      "inputId": 1,
      "color": "#0986ad"
    },
    {
      "id": 297,
      "outputModuleId": 3,
      "outputId": 3,
      "inputModuleId": 4,
      "inputId": 3,
      "color": "#0c8e15"
    },
    {
      "id": 340,
      "outputModuleId": 2,
      "outputId": 1,
      "inputModuleId": 7,
      "inputId": 0,
      "color": "#c91847"
    },
    {
      "id": 343,
      "outputModuleId": 18,
      "outputId": 1,
      "inputModuleId": 3,
      "inputId": 0,
      "color": "#0c8e15"
    },
    {
      "id": 331,
      "outputModuleId": 4,
      "outputId": 0,
      "inputModuleId": 13,
      "inputId": 3,
      "color": "#c9b70e"
    },
    {
      "id": 339,
      "outputModuleId": 6,
      "outputId": 0,
      "inputModuleId": 2,
      "inputId": 5,
      "color": "#0c8e15"
    },
    {
      "id": 345,
      "outputModuleId": 19,
      "outputId": 1,
      "inputModuleId": 15,
      "inputId": 2,
      "color": "#c9b70e"
    },
    {
      "id": 347,
      "outputModuleId": 15,
      "outputId": 0,
      "inputModuleId": 2,
      "inputId": 1,
      "color": "#c91847"
    },
    {
      "id": 349,
      "outputModuleId": 13,
      "outputId": 1,
      "inputModuleId": 19,
      "inputId": 5,
      "color": "#0c8e15"
    },
    {
      "id": 350,
      "outputModuleId": 13,
      "outputId": 3,
      "inputModuleId": 15,
      "inputId": 0,
      "color": "#c91847"
    },
    {
      "id": 327,
      "outputModuleId": 11,
      "outputId": 0,
      "inputModuleId": 6,
      "inputId": 4,
      "color": "#0c8e15"
    },
    {
      "id": 332,
      "outputModuleId": 11,
      "outputId": 2,
      "inputModuleId": 18,
      "inputId": 1,
      "color": "#0c8e15"
    },
    {
      "id": 351,
      "outputModuleId": 11,
      "outputId": 3,
      "inputModuleId": 4,
      "inputId": 0,
      "color": "#0986ad"
    }
  ]
}