{
  "version": "1.1.6",
  "modules": [
    {
      "id": 1,
      "plugin": "Core",
      "version": "1.1.6",
      "model": "AudioInterface",
      "params": [],
      "leftModuleId": 2,
      "data": {
        "audio": {
          "driver": 5,
          "deviceName": "Apple Inc.: Built-in Output",
          "offset": 0,
          "maxChannels": 8,
          "sampleRate": 44100,
          "blockSize": 256
        }
      },
      "pos": [
        92,
        0
      ]
    },
    {
      "id": 2,
      "plugin": "Fundamental",
      "version": "1.4.0",
      "model": "VCMixer",
      "params": [
        {
          "id": 0,
          "value": 1.0
        },
        {
          "id": 1,
          "value": 1.41421354
        },
        {
          "id": 2,
          "value": 1.0
        },
        {
          "id": 3,
          "value": 1.0
        },
        {
          "id": 4,
          "value": 1.0
        }
      ],
      "leftModuleId": 17,
      "rightModuleId": 1,
      "pos": [
        82,
        0
      ]
    },
    {
      "id": 16,
      "plugin": "Fundamental",
      "version": "1.4.0",
      "model": "VCO",
      "params": [
        {
          "id": 0,
          "value": 1.0
        },
        {
          "id": 1,
          "value": 1.0
        },
        {
          "id": 2,
          "value": -42.9839249
        },
        {
          "id": 3,
          "value": 0.0
        },
        {
          "id": 4,
          "value": 0.898499966
        },
        {
          "id": 5,
          "value": 0.397100031
        },
        {
          "id": 6,
          "value": 0.182999998
        }
      ],
      "leftModuleId": 22,
      "pos": [
        10,
        0
      ]
    },
    {
      "id": 17,
      "plugin": "Fundamental",
      "version": "1.4.0",
      "model": "Mutes",
      "params": [
        {
          "id": 0,
          "value": 0.0
        },
        {
          "id": 1,
          "value": 0.0
        },
        {
          "id": 2,
          "value": 0.0
        },
        {
          "id": 3,
          "value": 0.0
        },
        {
          "id": 4,
          "value": 0.0
        },
        {
          "id": 5,
          "value": 0.0
        },
        {
          "id": 6,
          "value": 0.0
        },
        {
          "id": 7,
          "value": 0.0
        },
        {
          "id": 8,
          "value": 0.0
        },
        {
          "id": 9,
          "value": 0.0
        }
      ],
      "rightModuleId": 2,
      "data": {
        "states": [
          false,
          true,
          true,
          true,
          true,
          true,
          true,
          true,
          true,
          true
        ]
      },
      "pos": [
        74,
        0
      ]
    },
    {
      "id": 18,
      "plugin": "Fundamental",
      "version": "1.4.0",
      "model": "VCA",
      "params": [
        {
          "id": 0,
          "value": 1.0
        },
        {
          "id": 1,
          "value": 1.0
        }
      ],
      "leftModuleId": 21,
      "pos": [
        57,
        0
      ]
    },
    {
      "id": 19,
      "plugin": "Fundamental",
      "version": "1.4.0",
      "model": "ADSR",
      "params": [
        {
          "id": 0,
          "value": 0.723500013
        },
        {
          "id": 1,
          "value": 0.219499826
        },
        {
          "id": 2,
          "value": 0.197999999
        },
        {
          "id": 3,
          "value": 0.804999828
        }
      ],
      "leftModuleId": 25,
      "rightModuleId": 21,
      "pos": [
        41,
        0
      ]
    },
    {
      "id": 20,
      "plugin": "Fundamental",
      "version": "1.4.0",
      "model": "SEQ3",
      "params": [
        {
          "id": 0,
          "value": 2.03600001
        },
        {
          "id": 1,
          "value": 0.0
        },
        {
          "id": 2,
          "value": 0.0
        },
        {
          "id": 3,
          "value": 8.0
        },
        {
          "id": 4,
          "value": 3.0
        },
        {
          "id": 5,
          "value": 3.64499998
        },
        {
          "id": 6,
          "value": 3.0
        },
        {
          "id": 7,
          "value": 4.65000296
        },
        {
          "id": 8,
          "value": 2.56499839
        },
        {
          "id": 9,
          "value": 3.0
        },
        {
          "id": 10,
          "value": 3.2249999
        },
        {
          "id": 11,
          "value": 3.0
        },
        {
          "id": 12,
          "value": 0.0
        },
        {
          "id": 13,
          "value": 0.0
        },
        {
          "id": 14,
          "value": 0.0
        },
        {
          "id": 15,
          "value": 0.0
        },
        {
          "id": 16,
          "value": 0.0
        },
        {
          "id": 17,
          "value": 0.0
        },
        {
          "id": 18,
          "value": 0.0
        },
        {
          "id": 19,
          "value": 0.0
        },
        {
          "id": 20,
          "value": 0.0
        },
        {
          "id": 21,
          "value": 0.0
        },
        {
          "id": 22,
          "value": 0.0
        },
        {
          "id": 23,
          "value": 0.0
        },
        {
          "id": 24,
          "value": 0.0
        },
        {
          "id": 25,
          "value": 0.0
        },
        {
          "id": 26,
          "value": 0.0
        },
        {
          "id": 27,
          "value": 0.0
        },
        {
          "id": 28,
          "value": 0.0
        },
        {
          "id": 29,
          "value": 0.0
        },
        {
          "id": 30,
          "value": 0.0
        },
        {
          "id": 31,
          "value": 0.0
        },
        {
          "id": 32,
          "value": 0.0
        },
        {
          "id": 33,
          "value": 0.0
        },
        {
          "id": 34,
          "value": 0.0
        },
        {
          "id": 35,
          "value": 0.0
        }
      ],
      "rightModuleId": 23,
      "data": {
        "running": true,
        "gates": [
          1,
          0,
          1,
          0,
          1,
          0,
          1,
          1
        ]
      },
      "pos": [
        10,
        1
      ]
    },
    {
      "id": 21,
      "plugin": "Fundamental",
      "version": "1.4.0",
      "model": "VCF",
      "params": [
        {
          "id": 0,
          "value": 0.893499672
        },
        {
          "id": 1,
          "value": 0.147500083
        },
        {
          "id": 2,
          "value": 0.0
        },
        {
          "id": 3,
          "value": -0.666000009
        },
        {
          "id": 4,
          "value": 0.421499729
        }
      ],
      "leftModuleId": 19,
      "rightModuleId": 18,
      "pos": [
        49,
        0
      ]
    },
    {
      "id": 22,
      "plugin": "Fundamental",
      "version": "1.4.0",
      "model": "VCO",
      "params": [
        {
          "id": 0,
          "value": 1.0
        },
        {
          "id": 1,
          "value": 1.0
        },
        {
          "id": 2,
          "value": -7.29000711
        },
        {
          "id": 3,
          "value": 0.308999985
        },
        {
          "id": 4,
          "value": 0.0
        },
        {
          "id": 5,
          "value": 0.574970126
        },
        {
          "id": 6,
          "value": 0.40049997
        }
      ],
      "rightModuleId": 16,
      "pos": [
        0,
        0
      ]
    },
    {
      "id": 23,
      "plugin": "AudibleInstruments",
      "version": "1.5.0",
      "model": "Links",
      "params": [],
      "leftModuleId": 20,
      "pos": [
        32,
        1
      ]
    },
    {
      "id": 24,
      "plugin": "Fundamental",
      "version": "1.4.0",
      "model": "VCA",
      "params": [
        {
          "id": 0,
          "value": 1.0
        },
        {
          "id": 1,
          "value": 1.0
        }
      ],
      "rightModuleId": 25,
      "pos": [
        28,
        0
      ]
    },
    {
      "id": 25,
      "plugin": "Fundamental",
      "version": "1.4.0",
      "model": "ADSR",
      "params": [
        {
          "id": 0,
          "value": 0.117499873
        },
        {
          "id": 1,
          "value": 0.157999963
        },
        {
          "id": 2,
          "value": 0.272000015
        },
        {
          "id": 3,
          "value": 0.647000074
        }
      ],
      "leftModuleId": 24,
      "rightModuleId": 19,
      "pos": [
        33,
        0
      ]
    }
  ],
  "cables": [
    {
      "id": 385,
      "outputModuleId": 2,
      "outputId": 0,
      "inputModuleId": 1,
      "inputId": 0,
      "color": "#0986ad"
    },
    {
      "id": 386,
      "outputModuleId": 2,
      "outputId": 0,
      "inputModuleId": 1,
      "inputId": 1,
      "color": "#c9b70e"
    },
    {
      "id": 394,
      "outputModuleId": 17,
      "outputId": 0,
      "inputModuleId": 2,
      "inputId": 1,
      "color": "#c9b70e"
    },
    {
      "id": 395,
      "outputModuleId": 18,
      "outputId": 1,
      "inputModuleId": 17,
      "inputId": 0,
      "color": "#c91847"
    },
    {
      "id": 399,
      "outputModuleId": 20,
      "outputId": 1,
      "inputModuleId": 16,
      "inputId": 0,
      "color": "#c91847"
    },
    {
      "id": 396,
      "outputModuleId": 16,
      "outputId": 0,
      "inputModuleId": 21,
      "inputId": 3,
      "color": "#0986ad"
    },
    {
      "id": 400,
      "outputModuleId": 21,
      "outputId": 0,
      "inputModuleId": 18,
      "inputId": 5,
      "color": "#c9b70e"
    },
    {
      "id": 397,
      "outputModuleId": 19,
      "outputId": 0,
      "inputModuleId": 18,
      "inputId": 3,
      "color": "#c9b70e"
    },
    {
      "id": 401,
      "outputModuleId": 19,
      "outputId": 0,
      "inputModuleId": 21,
      "inputId": 0,
      "color": "#0c8e15"
    },
    {
      "id": 402,
      "outputModuleId": 22,
      "outputId": 3,
      "inputModuleId": 24,
      "inputId": 5,
      "color": "#c91847"
    },
    {
      "id": 403,
      "outputModuleId": 24,
      "outputId": 1,
      "inputModuleId": 16,
      "inputId": 1,
      "color": "#0986ad"
    },
    {
      "id": 404,
      "outputModuleId": 25,
      "outputId": 0,
      "inputModuleId": 24,
      "inputId": 3,
      "color": "#c9b70e"
    },
    {
      "id": 398,
      "outputModuleId": 20,
      "outputId": 0,
      "inputModuleId": 23,
      "inputId": 0,
      "color": "#0c8e15"
    },
    {
      "id": 406,
      "outputModuleId": 23,
      "outputId": 0,
      "inputModuleId": 19,
      "inputId": 4,
      "color": "#0986ad"
    },
    {
      "id": 407,
      "outputModuleId": 23,
      "outputId": 2,
      "inputModuleId": 25,
      "inputId": 4,
      "color": "#0c8e15"
    }
  ]
}