{
  "version": "1.1.6",
  "modules": [
    {
      "id": 85,
      "plugin": "Fundamental",
      "version": "1.4.0",
      "model": "VCO",
      "params": [
        {
          "id": 0,
          "value": 1.0
        },
        {
          "id": 1,
          "value": 1.0
        },
        {
          "id": 2,
          "value": 0.0
        },
        {
          "id": 3,
          "value": 0.0
        },
        {
          "id": 4,
          "value": 0.0
        },
        {
          "id": 5,
          "value": 0.5
        },
        {
          "id": 6,
          "value": 0.0
        }
      ],
      "pos": [
        47,
        0
      ]
    },
    {
      "id": 86,
      "plugin": "Core",
      "version": "1.1.6",
      "model": "AudioInterface",
      "params": [],
      "rightModuleId": 88,
      "data": {
        "audio": {
          "driver": 5,
          "deviceName": "Apple Inc.: Built-in Output",
          "offset": 0,
          "maxChannels": 8,
          "sampleRate": 44100,
          "blockSize": 256
        }
      },
      "pos": [
        0,
        0
      ]
    },
    {
      "id": 87,
      "plugin": "Core",
      "version": "1.1.6",
      "model": "MIDIToCVInterface",
      "params": [],
      "data": {
        "channels": 1,
        "polyMode": 0,
        "clockDivision": 24,
        "lastPitch": 8192,
        "lastMod": 0,
        "midi": {
          "driver": -11,
          "deviceName": "QWERTY keyboard (US)",
          "channel": -1
        }
      },
      "pos": [
        65,
        0
      ]
    },
    {
      "id": 88,
      "plugin": "Fundamental",
      "version": "1.4.0",
      "model": "Mutes",
      "params": [
        {
          "id": 0,
          "value": 0.0
        },
        {
          "id": 1,
          "value": 0.0
        },
        {
          "id": 2,
          "value": 0.0
        },
        {
          "id": 3,
          "value": 0.0
        },
        {
          "id": 4,
          "value": 0.0
        },
        {
          "id": 5,
          "value": 0.0
        },
        {
          "id": 6,
          "value": 0.0
        },
        {
          "id": 7,
          "value": 0.0
        },
        {
          "id": 8,
          "value": 0.0
        },
        {
          "id": 9,
          "value": 0.0
        }
      ],
      "leftModuleId": 86,
      "data": {
        "states": [
          true,
          true,
          true,
          true,
          true,
          true,
          true,
          true,
          true,
          true
        ]
      },
      "pos": [
        10,
        0
      ]
    },
    {
      "id": 89,
      "plugin": "Fundamental",
      "version": "1.4.0",
      "model": "VCA",
      "params": [
        {
          "id": 0,
          "value": 1.0
        },
        {
          "id": 1,
          "value": 1.0
        }
      ],
      "rightModuleId": 90,
      "pos": [
        24,
        0
      ]
    },
    {
      "id": 90,
      "plugin": "Fundamental",
      "version": "1.4.0",
      "model": "ADSR",
      "params": [
        {
          "id": 0,
          "value": 0.5
        },
        {
          "id": 1,
          "value": 0.5
        },
        {
          "id": 2,
          "value": 0.5
        },
        {
          "id": 3,
          "value": 0.5
        }
      ],
      "leftModuleId": 89,
      "pos": [
        29,
        0
      ]
    },
    {
      "id": 91,
      "plugin": "Fundamental",
      "version": "1.4.0",
      "model": "VCF",
      "params": [
        {
          "id": 0,
          "value": 0.488499939
        },
        {
          "id": 1,
          "value": 0.5
        },
        {
          "id": 2,
          "value": 0.0
        },
        {
          "id": 3,
          "value": 1.0
        },
        {
          "id": 4,
          "value": 0.274499983
        }
      ],
      "rightModuleId": 92,
      "pos": [
        25,
        1
      ]
    },
    {
      "id": 92,
      "plugin": "Fundamental",
      "version": "1.4.0",
      "model": "LFO",
      "params": [
        {
          "id": 0,
          "value": 1.0
        },
        {
          "id": 1,
          "value": 1.0
        },
        {
          "id": 2,
          "value": 2.05299878
        },
        {
          "id": 3,
          "value": 0.0
        },
        {
          "id": 4,
          "value": 0.0
        },
        {
          "id": 5,
          "value": 0.5
        },
        {
          "id": 6,
          "value": 0.0
        }
      ],
      "leftModuleId": 91,
      "pos": [
        33,
        1
      ]
    }
  ],
  "cables": [
    {
      "id": 275,
      "outputModuleId": 87,
      "outputId": 0,
      "inputModuleId": 85,
      "inputId": 0,
      "color": "#c9b70e"
    },
    {
      "id": 277,
      "outputModuleId": 88,
      "outputId": 0,
      "inputModuleId": 86,
      "inputId": 0,
      "color": "#0986ad"
    },
    {
      "id": 278,
      "outputModuleId": 88,
      "outputId": 1,
      "inputModuleId": 86,
      "inputId": 1,
      "color": "#c9b70e"
    },
    {
      "id": 282,
      "outputModuleId": 85,
      "outputId": 0,
      "inputModuleId": 89,
      "inputId": 2,
      "color": "#c9b70e"
    },
    {
      "id": 283,
      "outputModuleId": 87,
      "outputId": 1,
      "inputModuleId": 90,
      "inputId": 4,
      "color": "#0c8e15"
    },
    {
      "id": 287,
      "outputModuleId": 90,
      "outputId": 0,
      "inputModuleId": 89,
      "inputId": 1,
      "color": "#c91847"
    },
    {
      "id": 288,
      "outputModuleId": 89,
      "outputId": 0,
      "inputModuleId": 91,
      "inputId": 3,
      "color": "#c9b70e"
    },
    {
      "id": 291,
      "outputModuleId": 92,
      "outputId": 2,
      "inputModuleId": 91,
      "inputId": 0,
      "color": "#0986ad"
    },
    {
      "id": 289,
      "outputModuleId": 91,
      "outputId": 0,
      "inputModuleId": 88,
      "inputId": 0,
      "color": "#0c8e15"
    },
    {
      "id": 290,
      "outputModuleId": 91,
      "outputId": 0,
      "inputModuleId": 88,
      "inputId": 1,
      "color": "#c91847"
    }
  ]
}