{
  "version": "1.1.6",
  "modules": [
    {
      "id": 1,
      "plugin": "Core",
      "version": "1.1.6",
      "model": "AudioInterface",
      "params": [],
      "leftModuleId": 21,
      "data": {
        "audio": {
          "driver": 5,
          "deviceName": "Apple Inc.: Built-in Output",
          "offset": 0,
          "maxChannels": 8,
          "sampleRate": 44100,
          "blockSize": 256
        }
      },
      "pos": [
        118,
        0
      ]
    },
    {
      "id": 3,
      "plugin": "Fundamental",
      "version": "1.4.0",
      "model": "VCO",
      "params": [
        {
          "id": 0,
          "value": 1.0
        },
        {
          "id": 1,
          "value": 0.0
        },
        {
          "id": 2,
          "value": -25.9740009
        },
        {
          "id": 3,
          "value": 0.518999994
        },
        {
          "id": 4,
          "value": 0.579999924
        },
        {
          "id": 5,
          "value": 0.15895994
        },
        {
          "id": 6,
          "value": 1.0
        }
      ],
      "rightModuleId": 4,
      "pos": [
        50,
        0
      ]
    },
    {
      "id": 4,
      "plugin": "Fundamental",
      "version": "1.4.0",
      "model": "VCF",
      "params": [
        {
          "id": 0,
          "value": 0.625000119
        },
        {
          "id": 1,
          "value": 0.483500004
        },
        {
          "id": 2,
          "value": 0.42900005
        },
        {
          "id": 3,
          "value": 0.726999938
        },
        {
          "id": 4,
          "value": 0.559499979
        }
      ],
      "leftModuleId": 3,
      "rightModuleId": 23,
      "pos": [
        60,
        0
      ]
    },
    {
      "id": 21,
      "plugin": "NYSTHI",
      "version": "1.0.17",
      "model": "mix8",
      "params": [
        {
          "id": 0,
          "value": 0.0
        },
        {
          "id": 1,
          "value": 0.0
        },
        {
          "id": 2,
          "value": 0.0
        },
        {
          "id": 3,
          "value": 0.0
        },
        {
          "id": 4,
          "value": 0.0
        },
        {
          "id": 5,
          "value": 0.0
        },
        {
          "id": 6,
          "value": 0.0
        },
        {
          "id": 7,
          "value": 0.0
        },
        {
          "id": 8,
          "value": 0.0
        },
        {
          "id": 9,
          "value": 0.0
        },
        {
          "id": 10,
          "value": 0.0
        },
        {
          "id": 11,
          "value": 0.0
        },
        {
          "id": 12,
          "value": 0.0
        },
        {
          "id": 13,
          "value": 0.0
        },
        {
          "id": 14,
          "value": 0.0
        },
        {
          "id": 15,
          "value": 0.0
        },
        {
          "id": 16,
          "value": 0.0
        },
        {
          "id": 17,
          "value": 0.0
        },
        {
          "id": 18,
          "value": 0.0
        },
        {
          "id": 19,
          "value": 0.0
        },
        {
          "id": 20,
          "value": 0.0
        },
        {
          "id": 21,
          "value": 0.0
        },
        {
          "id": 22,
          "value": 0.0
        },
        {
          "id": 23,
          "value": 0.0
        },
        {
          "id": 24,
          "value": 0.0
        },
        {
          "id": 25,
          "value": 0.0
        },
        {
          "id": 26,
          "value": 0.0
        },
        {
          "id": 27,
          "value": 0.0
        },
        {
          "id": 28,
          "value": 0.0
        },
        {
          "id": 29,
          "value": 0.0
        },
        {
          "id": 30,
          "value": 0.0
        },
        {
          "id": 31,
          "value": 0.0
        },
        {
          "id": 32,
          "value": 0.0
        },
        {
          "id": 33,
          "value": 0.0
        },
        {
          "id": 34,
          "value": 0.0
        },
        {
          "id": 35,
          "value": 0.0
        },
        {
          "id": 36,
          "value": 0.0
        },
        {
          "id": 37,
          "value": 0.0
        },
        {
          "id": 38,
          "value": 0.0
        },
        {
          "id": 39,
          "value": 0.0
        }
      ],
      "rightModuleId": 1,
      "data": {
        "m_channels": [
          0.557531893,
          0.5,
          false,
          false,
          0.589220464,
          0.5,
          false,
          false,
          0.526002407,
          0.5,
          false,
          false,
          0.662871897,
          0.5,
          false,
          false,
          1.0,
          0.5,
          false,
          false,
          1.0,
          0.5,
          false,
          false,
          1.0,
          0.5,
          false,
          false,
          1.0,
          0.5,
          false,
          false
        ],
        "m_master_volume": 1.0,
        "m_master_mute_trig": false,
        "m_low_power": false,
        "m_cvcompatible": false,
        "m_show_post_out": false,
        "m_post_outputs_unaffected_by_solo_mode": false,
        "m_attenuation": 1.0,
        "m_limiting_mode": 0,
        "m_poly_out": 8
      },
      "pos": [
        105,
        0
      ]
    },
    {
      "id": 22,
      "plugin": "Bogaudio",
      "version": "1.1.35",
      "model": "Bogaudio-Analyzer",
      "params": [
        {
          "id": 0,
          "value": 0.0
        },
        {
          "id": 1,
          "value": 0.5
        },
        {
          "id": 2,
          "value": 1.0
        },
        {
          "id": 3,
          "value": 0.0
        },
        {
          "id": 4,
          "value": 1.0
        },
        {
          "id": 5,
          "value": 0.0
        }
      ],
      "leftModuleId": 28,
      "data": {
        "frequency_plot": "log",
        "amplitude_plot": "decibels_80"
      },
      "pos": [
        81,
        0
      ]
    },
    {
      "id": 23,
      "plugin": "Fundamental",
      "version": "1.4.0",
      "model": "ADSR",
      "params": [
        {
          "id": 0,
          "value": 0.0345000848
        },
        {
          "id": 1,
          "value": 0.169500023
        },
        {
          "id": 2,
          "value": 0.164999917
        },
        {
          "id": 3,
          "value": 0.505500078
        }
      ],
      "leftModuleId": 4,
      "rightModuleId": 28,
      "pos": [
        68,
        0
      ]
    },
    {
      "id": 28,
      "plugin": "AS",
      "version": "1.0.4",
      "model": "AtNuVrTr",
      "params": [
        {
          "id": 0,
          "value": 0.0
        },
        {
          "id": 1,
          "value": 0.0
        },
        {
          "id": 2,
          "value": 0.0
        },
        {
          "id": 3,
          "value": 0.0
        }
      ],
      "leftModuleId": 23,
      "rightModuleId": 22,
      "pos": [
        76,
        0
      ]
    },
    {
      "id": 29,
      "plugin": "Autodafe-DrumKit",
      "version": "1.0.0",
      "model": "DrumsKick",
      "params": [
        {
          "id": 0,
          "value": 0.0
        }
      ],
      "data": {
        "sampletype": 2
      },
      "pos": [
        77,
        1
      ]
    },
    {
      "id": 40,
      "plugin": "Bogaudio",
      "version": "1.1.35",
      "model": "Bogaudio-Bool",
      "params": [],
      "leftModuleId": 42,
      "rightModuleId": 43,
      "data": {},
      "pos": [
        73,
        2
      ]
    },
    {
      "id": 41,
      "plugin": "Bogaudio",
      "version": "1.1.35",
      "model": "Bogaudio-VCO",
      "params": [
        {
          "id": 0,
          "value": -0.917998433
        },
        {
          "id": 1,
          "value": -0.432000101
        },
        {
          "id": 2,
          "value": 0.0
        },
        {
          "id": 3,
          "value": 0.126000077
        },
        {
          "id": 4,
          "value": 0.0
        },
        {
          "id": 5,
          "value": 1.0
        },
        {
          "id": 6,
          "value": 0.0
        }
      ],
      "leftModuleId": 47,
      "rightModuleId": 42,
      "data": {
        "poly_input": 0
      },
      "pos": [
        53,
        2
      ]
    },
    {
      "id": 42,
      "plugin": "Bogaudio",
      "version": "1.1.35",
      "model": "Bogaudio-VCO",
      "params": [
        {
          "id": 0,
          "value": -2.33549881
        },
        {
          "id": 1,
          "value": -0.083999902
        },
        {
          "id": 2,
          "value": 0.0
        },
        {
          "id": 3,
          "value": -1.0
        },
        {
          "id": 4,
          "value": 0.310500026
        },
        {
          "id": 5,
          "value": 1.0
        },
        {
          "id": 6,
          "value": 0.0
        }
      ],
      "leftModuleId": 41,
      "rightModuleId": 40,
      "data": {
        "poly_input": 0
      },
      "pos": [
        63,
        2
      ]
    },
    {
      "id": 43,
      "plugin": "Bogaudio",
      "version": "1.1.35",
      "model": "Bogaudio-VCF",
      "params": [
        {
          "id": 0,
          "value": 0.121499859
        },
        {
          "id": 1,
          "value": 0.831000209
        },
        {
          "id": 2,
          "value": 0.0
        },
        {
          "id": 3,
          "value": 0.53550005
        },
        {
          "id": 4,
          "value": 3.0
        },
        {
          "id": 5,
          "value": 0.26700002
        }
      ],
      "leftModuleId": 40,
      "rightModuleId": 46,
      "data": {
        "bandwidthMode": "pitched"
      },
      "pos": [
        76,
        2
      ]
    },
    {
      "id": 44,
      "plugin": "NYSTHI",
      "version": "1.0.17",
      "model": "PolyLPG",
      "params": [
        {
          "id": 0,
          "value": 0.142499998
        },
        {
          "id": 1,
          "value": 1.0
        },
        {
          "id": 2,
          "value": 0.5
        },
        {
          "id": 3,
          "value": 0.0
        },
        {
          "id": 4,
          "value": 0.0
        },
        {
          "id": 5,
          "value": 0.0
        }
      ],
      "leftModuleId": 46,
      "rightModuleId": 49,
      "data": {
        "m_VCALP_mode": 1,
        "m_vactrol_speed0": 2,
        "m_vactrol_lineartities0": false
      },
      "pos": [
        96,
        2
      ]
    },
    {
      "id": 46,
      "plugin": "Bogaudio",
      "version": "1.1.35",
      "model": "Bogaudio-VCF",
      "params": [
        {
          "id": 0,
          "value": 0.154499948
        },
        {
          "id": 1,
          "value": 0.831000209
        },
        {
          "id": 2,
          "value": 0.0
        },
        {
          "id": 3,
          "value": 0.406500041
        },
        {
          "id": 4,
          "value": 2.0
        },
        {
          "id": 5,
          "value": 0.367500067
        }
      ],
      "leftModuleId": 43,
      "rightModuleId": 44,
      "data": {
        "bandwidthMode": "pitched"
      },
      "pos": [
        86,
        2
      ]
    },
    {
      "id": 47,
      "plugin": "Bogaudio",
      "version": "1.1.35",
      "model": "Bogaudio-DADSRHPlus",
      "params": [
        {
          "id": 0,
          "value": 0.169499993
        },
        {
          "id": 1,
          "value": 0.143999979
        },
        {
          "id": 2,
          "value": 0.445230067
        },
        {
          "id": 3,
          "value": 0.324499935
        },
        {
          "id": 4,
          "value": 0.716729879
        },
        {
          "id": 5,
          "value": 0.987210155
        },
        {
          "id": 6,
          "value": 3.0
        },
        {
          "id": 7,
          "value": 3.0
        },
        {
          "id": 8,
          "value": 3.0
        },
        {
          "id": 9,
          "value": 0.0
        },
        {
          "id": 10,
          "value": 0.0
        },
        {
          "id": 11,
          "value": 0.0
        },
        {
          "id": 12,
          "value": 1.0
        },
        {
          "id": 13,
          "value": 1.0
        }
      ],
      "rightModuleId": 41,
      "data": {
        "triggerOnLoad": true,
        "shouldTriggerOnLoad": true
      },
      "pos": [
        38,
        2
      ]
    },
    {
      "id": 48,
      "plugin": "Fundamental",
      "version": "1.4.0",
      "model": "SEQ3",
      "params": [
        {
          "id": 0,
          "value": -0.255999953
        },
        {
          "id": 1,
          "value": 0.0
        },
        {
          "id": 2,
          "value": 0.0
        },
        {
          "id": 3,
          "value": 8.0
        },
        {
          "id": 4,
          "value": 0.0
        },
        {
          "id": 5,
          "value": 0.344999939
        },
        {
          "id": 6,
          "value": 0.945000052
        },
        {
          "id": 7,
          "value": 0.8549999
        },
        {
          "id": 8,
          "value": 1.69499958
        },
        {
          "id": 9,
          "value": 1.01999998
        },
        {
          "id": 10,
          "value": 0.855000019
        },
        {
          "id": 11,
          "value": 1.82999933
        },
        {
          "id": 12,
          "value": 0.0
        },
        {
          "id": 13,
          "value": 0.0
        },
        {
          "id": 14,
          "value": 5.0
        },
        {
          "id": 15,
          "value": 0.0
        },
        {
          "id": 16,
          "value": 0.0
        },
        {
          "id": 17,
          "value": 0.0
        },
        {
          "id": 18,
          "value": 5.0
        },
        {
          "id": 19,
          "value": 0.0
        },
        {
          "id": 20,
          "value": 0.0
        },
        {
          "id": 21,
          "value": 0.0
        },
        {
          "id": 22,
          "value": 0.0
        },
        {
          "id": 23,
          "value": 0.0
        },
        {
          "id": 24,
          "value": 0.0
        },
        {
          "id": 25,
          "value": 0.0
        },
        {
          "id": 26,
          "value": 0.0
        },
        {
          "id": 27,
          "value": 0.0
        },
        {
          "id": 28,
          "value": 0.0
        },
        {
          "id": 29,
          "value": 0.0
        },
        {
          "id": 30,
          "value": 0.0
        },
        {
          "id": 31,
          "value": 0.0
        },
        {
          "id": 32,
          "value": 0.0
        },
        {
          "id": 33,
          "value": 0.0
        },
        {
          "id": 34,
          "value": 0.0
        },
        {
          "id": 35,
          "value": 0.0
        }
      ],
      "rightModuleId": 50,
      "data": {
        "running": true,
        "gates": [
          1,
          0,
          1,
          0,
          1,
          0,
          1,
          0
        ]
      },
      "pos": [
        10,
        2
      ]
    },
    {
      "id": 49,
      "plugin": "Befaco",
      "version": "1.0.1",
      "model": "SpringReverb",
      "params": [
        {
          "id": 0,
          "value": 0.938500047
        },
        {
          "id": 1,
          "value": 0.714000046
        },
        {
          "id": 2,
          "value": 0.0
        },
        {
          "id": 3,
          "value": 0.219499975
        }
      ],
      "leftModuleId": 44,
      "pos": [
        100,
        2
      ]
    },
    {
      "id": 50,
      "plugin": "Fundamental",
      "version": "1.4.0",
      "model": "Quantizer",
      "params": [],
      "leftModuleId": 48,
      "data": {
        "enabledNotes": [
          true,
          false,
          true,
          false,
          true,
          true,
          false,
          true,
          false,
          true,
          false,
          true
        ]
      },
      "pos": [
        32,
        2
      ]
    },
    {
      "id": 51,
      "plugin": "ImpromptuModular",
      "version": "1.1.9",
      "model": "Clocked-Clkd",
      "params": [
        {
          "id": 0,
          "value": 0.0
        },
        {
          "id": 1,
          "value": 0.0
        },
        {
          "id": 2,
          "value": 0.0
        },
        {
          "id": 3,
          "value": 120.0
        },
        {
          "id": 4,
          "value": 0.0
        },
        {
          "id": 5,
          "value": 0.0
        },
        {
          "id": 6,
          "value": 0.0
        },
        {
          "id": 7,
          "value": 0.0
        },
        {
          "id": 8,
          "value": 0.0
        },
        {
          "id": 9,
          "value": 0.0
        }
      ],
      "data": {
        "panelTheme": 0,
        "running": true,
        "bpmDetectionMode": false,
        "resetOnStartStop": 0,
        "ppqn": 4,
        "resetClockOutputsHigh": true,
        "momentaryRunInput": true,
        "displayIndex": 3,
        "trigOuts": [
          false,
          false,
          false,
          false
        ],
        "clockMaster": -1
      },
      "pos": [
        0,
        1
      ]
    },
    {
      "id": 52,
      "plugin": "ML_modules",
      "version": "1.1.2",
      "model": "ShiftRegister",
      "params": [
        {
          "id": 0,
          "value": 0.0
        },
        {
          "id": 1,
          "value": 0.0
        },
        {
          "id": 2,
          "value": 0.0
        },
        {
          "id": 3,
          "value": 0.0
        },
        {
          "id": 4,
          "value": 0.0
        },
        {
          "id": 5,
          "value": 0.0
        },
        {
          "id": 6,
          "value": 0.0
        },
        {
          "id": 7,
          "value": 0.0
        },
        {
          "id": 8,
          "value": 0.0
        }
      ],
      "pos": [
        36,
        3
      ]
    }
  ],
  "cables": [
    {
      "id": 266,
      "outputModuleId": 4,
      "outputId": 0,
      "inputModuleId": 22,
      "inputId": 0,
      "color": "#c91847"
    },
    {
      "id": 268,
      "outputModuleId": 21,
      "outputId": 0,
      "inputModuleId": 1,
      "inputId": 0,
      "color": "#c91847"
    },
    {
      "id": 269,
      "outputModuleId": 21,
      "outputId": 1,
      "inputModuleId": 1,
      "inputId": 1,
      "color": "#0986ad"
    },
    {
      "id": 264,
      "outputModuleId": 3,
      "outputId": 0,
      "inputModuleId": 4,
      "inputId": 3,
      "color": "#c91847"
    },
    {
      "id": 271,
      "outputModuleId": 3,
      "outputId": 3,
      "inputModuleId": 4,
      "inputId": 1,
      "color": "#0986ad"
    },
    {
      "id": 275,
      "outputModuleId": 4,
      "outputId": 0,
      "inputModuleId": 28,
      "inputId": 4,
      "color": "#c91847"
    },
    {
      "id": 280,
      "outputModuleId": 29,
      "outputId": 0,
      "inputModuleId": 21,
      "inputId": 1,
      "color": "#c91847"
    },
    {
      "id": 292,
      "outputModuleId": 41,
      "outputId": 0,
      "inputModuleId": 40,
      "inputId": 0,
      "color": "#c91847"
    },
    {
      "id": 293,
      "outputModuleId": 42,
      "outputId": 0,
      "inputModuleId": 40,
      "inputId": 1,
      "color": "#c91847"
    },
    {
      "id": 290,
      "outputModuleId": 40,
      "outputId": 2,
      "inputModuleId": 43,
      "inputId": 3,
      "color": "#c91847"
    },
    {
      "id": 296,
      "outputModuleId": 44,
      "outputId": 0,
      "inputModuleId": 21,
      "inputId": 2,
      "color": "#c91847"
    },
    {
      "id": 299,
      "outputModuleId": 46,
      "outputId": 0,
      "inputModuleId": 44,
      "inputId": 0,
      "color": "#c91847"
    },
    {
      "id": 300,
      "outputModuleId": 43,
      "outputId": 0,
      "inputModuleId": 46,
      "inputId": 3,
      "color": "#c91847"
    },
    {
      "id": 303,
      "outputModuleId": 47,
      "outputId": 5,
      "inputModuleId": 44,
      "inputId": 1,
      "color": "#0986ad"
    },
    {
      "id": 307,
      "outputModuleId": 41,
      "outputId": 1,
      "inputModuleId": 42,
      "inputId": 1,
      "color": "#c9b70e"
    },
    {
      "id": 309,
      "outputModuleId": 44,
      "outputId": 0,
      "inputModuleId": 49,
      "inputId": 2,
      "color": "#c91847"
    },
    {
      "id": 310,
      "outputModuleId": 49,
      "outputId": 0,
      "inputModuleId": 21,
      "inputId": 3,
      "color": "#c91847"
    },
    {
      "id": 311,
      "outputModuleId": 48,
      "outputId": 0,
      "inputModuleId": 47,
      "inputId": 6,
      "color": "#0986ad"
    },
    {
      "id": 312,
      "outputModuleId": 48,
      "outputId": 1,
      "inputModuleId": 50,
      "inputId": 0,
      "color": "#c9b70e"
    },
    {
      "id": 313,
      "outputModuleId": 50,
      "outputId": 0,
      "inputModuleId": 41,
      "inputId": 0,
      "color": "#0c8e15"
    },
    {
      "id": 314,
      "outputModuleId": 50,
      "outputId": 0,
      "inputModuleId": 42,
      "inputId": 0,
      "color": "#0c8e15"
    },
    {
      "id": 316,
      "outputModuleId": 50,
      "outputId": 0,
      "inputModuleId": 3,
      "inputId": 1,
      "color": "#0c8e15"
    },
    {
      "id": 270,
      "outputModuleId": 3,
      "outputId": 2,
      "inputModuleId": 4,
      "inputId": 2,
      "color": "#0c8e15"
    },
    {
      "id": 319,
      "outputModuleId": 49,
      "outputId": 1,
      "inputModuleId": 41,
      "inputId": 2,
      "color": "#c91847"
    },
    {
      "id": 321,
      "outputModuleId": 51,
      "outputId": 1,
      "inputModuleId": 48,
      "inputId": 1,
      "color": "#0986ad"
    },
    {
      "id": 278,
      "outputModuleId": 51,
      "outputId": 2,
      "inputModuleId": 29,
      "inputId": 0,
      "color": "#0986ad"
    },
    {
      "id": 273,
      "outputModuleId": 51,
      "outputId": 3,
      "inputModuleId": 23,
      "inputId": 4,
      "color": "#0986ad"
    },
    {
      "id": 322,
      "outputModuleId": 47,
      "outputId": 6,
      "inputModuleId": 4,
      "inputId": 0,
      "color": "#0986ad"
    },
    {
      "id": 277,
      "outputModuleId": 23,
      "outputId": 0,
      "inputModuleId": 28,
      "inputId": 0,
      "color": "#0c8e15"
    },
    {
      "id": 276,
      "outputModuleId": 28,
      "outputId": 0,
      "inputModuleId": 21,
      "inputId": 0,
      "color": "#c91847"
    },
    {
      "id": 318,
      "outputModuleId": 50,
      "outputId": 0,
      "inputModuleId": 42,
      "inputId": 3,
      "color": "#0c8e15"
    },
    {
      "id": 324,
      "outputModuleId": 50,
      "outputId": 0,
      "inputModuleId": 52,
      "inputId": 0,
      "color": "#0c8e15"
    },
    {
      "id": 325,
      "outputModuleId": 48,
      "outputId": 0,
      "inputModuleId": 52,
      "inputId": 1,
      "color": "#0986ad"
    }
  ]
}