{
  "version": "1.1.6",
  "modules": [
    {
      "id": 54,
      "plugin": "Core",
      "version": "1.1.6",
      "model": "Notes",
      "params": [],
      "text": "RED:\n- Audio connections\n\nBLUE:\n- Clocks\n- Triggers\n- Gates\n\nYELLOW:\n- Voltage \n\nGREEN:\n- Modulation\n",
      "pos": [
        23,
        0
      ]
    },
    {
      "id": 59,
      "plugin": "Core",
      "version": "1.1.6",
      "model": "MIDIToCVInterface",
      "params": [],
      "data": {
        "channels": 1,
        "polyMode": 0,
        "clockDivision": 24,
        "lastPitch": 8192,
        "lastMod": 0,
        "midi": {
          "driver": 1,
          "channel": -1
        }
      },
      "pos": [
        0,
        0
      ]
    },
    {
      "id": 60,
      "plugin": "AudibleInstruments",
      "version": "1.5.0",
      "model": "Links",
      "params": [],
      "pos": [
        18,
        0
      ]
    }
  ],
  "cables": [
    {
      "id": 517,
      "outputModuleId": 59,
      "outputId": 0,
      "inputModuleId": 60,
      "inputId": 0,
      "color": "#c91847"
    },
    {
      "id": 518,
      "outputModuleId": 59,
      "outputId": 3,
      "inputModuleId": 60,
      "inputId": 1,
      "color": "#0986ad"
    },
    {
      "id": 519,
      "outputModuleId": 59,
      "outputId": 7,
      "inputModuleId": 60,
      "inputId": 3,
      "color": "#c9b70e"
    },
    {
      "id": 520,
      "outputModuleId": 59,
      "outputId": 9,
      "inputModuleId": 60,
      "inputId": 5,
      "color": "#0c8e15"
    }
  ]
}