{
  "version": "1.1.6",
  "modules": [
    {
      "id": 1,
      "plugin": "Core",
      "version": "1.1.6",
      "model": "AudioInterface",
      "params": [],
      "leftModuleId": 9,
      "data": {
        "audio": {
          "driver": 5,
          "deviceName": "Apple Inc.: Built-in Output",
          "offset": 0,
          "maxChannels": 8,
          "sampleRate": 44100,
          "blockSize": 256
        }
      },
      "pos": [
        67,
        0
      ]
    },
    {
      "id": 9,
      "plugin": "Fundamental",
      "version": "1.4.0",
      "model": "VCMixer",
      "params": [
        {
          "id": 0,
          "value": 0.0
        },
        {
          "id": 1,
          "value": 1.0
        },
        {
          "id": 2,
          "value": 1.0
        },
        {
          "id": 3,
          "value": 1.0
        },
        {
          "id": 4,
          "value": 1.0
        }
      ],
      "leftModuleId": 10,
      "rightModuleId": 1,
      "pos": [
        57,
        0
      ]
    },
    {
      "id": 10,
      "plugin": "Fundamental",
      "version": "1.4.0",
      "model": "Scope",
      "params": [
        {
          "id": 0,
          "value": 0.0
        },
        {
          "id": 1,
          "value": 0.0
        },
        {
          "id": 2,
          "value": 1.0
        },
        {
          "id": 3,
          "value": -2.73000383
        },
        {
          "id": 4,
          "value": 6.0
        },
        {
          "id": 5,
          "value": 0.0
        },
        {
          "id": 6,
          "value": 0.0
        },
        {
          "id": 7,
          "value": 0.0
        }
      ],
      "leftModuleId": 11,
      "rightModuleId": 9,
      "data": {
        "lissajous": 0,
        "external": 0
      },
      "pos": [
        44,
        0
      ]
    },
    {
      "id": 11,
      "plugin": "Fundamental",
      "version": "1.4.0",
      "model": "LFO",
      "params": [
        {
          "id": 0,
          "value": 1.0
        },
        {
          "id": 1,
          "value": 1.0
        },
        {
          "id": 2,
          "value": -0.754999816
        },
        {
          "id": 3,
          "value": 0.0
        },
        {
          "id": 4,
          "value": 0.0
        },
        {
          "id": 5,
          "value": 0.5
        },
        {
          "id": 6,
          "value": 0.0
        }
      ],
      "leftModuleId": 12,
      "rightModuleId": 10,
      "pos": [
        34,
        0
      ]
    },
    {
      "id": 12,
      "plugin": "Fundamental",
      "version": "1.4.0",
      "model": "VCF",
      "params": [
        {
          "id": 0,
          "value": 0.5
        },
        {
          "id": 1,
          "value": 0.5
        },
        {
          "id": 2,
          "value": 0.5
        },
        {
          "id": 3,
          "value": 1.0
        },
        {
          "id": 4,
          "value": 0.0
        }
      ],
      "leftModuleId": 13,
      "rightModuleId": 11,
      "pos": [
        26,
        0
      ]
    },
    {
      "id": 13,
      "plugin": "Fundamental",
      "version": "1.4.0",
      "model": "VCO",
      "params": [
        {
          "id": 0,
          "value": 1.0
        },
        {
          "id": 1,
          "value": 1.0
        },
        {
          "id": 2,
          "value": -11.0159988
        },
        {
          "id": 3,
          "value": 0.0
        },
        {
          "id": 4,
          "value": 0.0
        },
        {
          "id": 5,
          "value": 0.5
        },
        {
          "id": 6,
          "value": 0.0
        }
      ],
      "leftModuleId": 14,
      "rightModuleId": 12,
      "pos": [
        16,
        0
      ]
    },
    {
      "id": 14,
      "plugin": "Core",
      "version": "1.1.6",
      "model": "Notes",
      "params": [],
      "rightModuleId": 13,
      "text": "RED:\n- Audio connections\n\nBLUE:\n- Clocks\n- Triggers\n- Gates\n\nYELLOW:\n- Voltage \n\nGREEN:\n- Modulation\n",
      "pos": [
        0,
        0
      ]
    }
  ],
  "cables": [
    {
      "id": 12,
      "outputModuleId": 13,
      "outputId": 2,
      "inputModuleId": 12,
      "inputId": 3,
      "color": "#c91847"
    },
    {
      "id": 13,
      "outputModuleId": 12,
      "outputId": 0,
      "inputModuleId": 9,
      "inputId": 1,
      "color": "#c91847"
    },
    {
      "id": 14,
      "outputModuleId": 9,
      "outputId": 0,
      "inputModuleId": 1,
      "inputId": 0,
      "color": "#c91847"
    },
    {
      "id": 15,
      "outputModuleId": 9,
      "outputId": 0,
      "inputModuleId": 1,
      "inputId": 1,
      "color": "#c91847"
    },
    {
      "id": 18,
      "outputModuleId": 11,
      "outputId": 0,
      "inputModuleId": 10,
      "inputId": 0,
      "color": "#0c8e15"
    },
    {
      "id": 19,
      "outputModuleId": 11,
      "outputId": 0,
      "inputModuleId": 12,
      "inputId": 0,
      "color": "#0c8e15"
    },
    {
      "id": 20,
      "outputModuleId": 12,
      "outputId": 0,
      "inputModuleId": 10,
      "inputId": 1,
      "color": "#c91847"
    }
  ]
}