{
  "version": "1.1.6",
  "modules": [
    {
      "id": 8,
      "plugin": "Core",
      "version": "1.1.6",
      "model": "Notes",
      "params": [],
      "leftModuleId": 29,
      "text": "RED:\n- Audio connections\n\nBLUE:\n- Clocks\n- Triggers\n- Gates\n\nYELLOW:\n- Voltage \n\nGREEN:\n- Modulation\n",
      "pos": [
        68,
        0
      ]
    },
    {
      "id": 28,
      "plugin": "Fundamental",
      "version": "1.4.0",
      "model": "VCMixer",
      "params": [
        {
          "id": 0,
          "value": 0.0
        },
        {
          "id": 1,
          "value": 1.0
        },
        {
          "id": 2,
          "value": 1.0
        },
        {
          "id": 3,
          "value": 1.0
        },
        {
          "id": 4,
          "value": 1.0
        }
      ],
      "leftModuleId": 33,
      "rightModuleId": 29,
      "pos": [
        48,
        0
      ]
    },
    {
      "id": 29,
      "plugin": "Core",
      "version": "1.1.6",
      "model": "AudioInterface",
      "params": [],
      "leftModuleId": 28,
      "rightModuleId": 8,
      "data": {
        "audio": {
          "driver": 5,
          "deviceName": "Apple Inc.: Built-in Output",
          "offset": 0,
          "maxChannels": 8,
          "sampleRate": 44100,
          "blockSize": 256
        }
      },
      "pos": [
        58,
        0
      ]
    },
    {
      "id": 33,
      "plugin": "Fundamental",
      "version": "1.4.0",
      "model": "Scope",
      "params": [
        {
          "id": 0,
          "value": 0.0
        },
        {
          "id": 1,
          "value": 0.0
        },
        {
          "id": 2,
          "value": 0.0
        },
        {
          "id": 3,
          "value": 0.0
        },
        {
          "id": 4,
          "value": 16.0
        },
        {
          "id": 5,
          "value": 0.0
        },
        {
          "id": 6,
          "value": 0.0
        },
        {
          "id": 7,
          "value": 0.0
        }
      ],
      "leftModuleId": 34,
      "rightModuleId": 28,
      "data": {
        "lissajous": 0,
        "external": 0
      },
      "pos": [
        35,
        0
      ]
    },
    {
      "id": 34,
      "plugin": "Fundamental",
      "version": "1.4.0",
      "model": "VCO",
      "params": [
        {
          "id": 0,
          "value": 0.0
        },
        {
          "id": 1,
          "value": 1.0
        },
        {
          "id": 2,
          "value": 0.0
        },
        {
          "id": 3,
          "value": 0.0
        },
        {
          "id": 4,
          "value": 0.0
        },
        {
          "id": 5,
          "value": 0.429440796
        },
        {
          "id": 6,
          "value": 0.355499923
        }
      ],
      "rightModuleId": 33,
      "pos": [
        25,
        0
      ]
    },
    {
      "id": 35,
      "plugin": "Fundamental",
      "version": "1.4.0",
      "model": "LFO",
      "params": [
        {
          "id": 0,
          "value": 0.0
        },
        {
          "id": 1,
          "value": 1.0
        },
        {
          "id": 2,
          "value": -0.404000938
        },
        {
          "id": 3,
          "value": 0.0
        },
        {
          "id": 4,
          "value": 0.0
        },
        {
          "id": 5,
          "value": 0.5
        },
        {
          "id": 6,
          "value": 0.0
        }
      ],
      "rightModuleId": 36,
      "pos": [
        0,
        0
      ]
    },
    {
      "id": 36,
      "plugin": "Fundamental",
      "version": "1.4.0",
      "model": "Scope",
      "params": [
        {
          "id": 0,
          "value": 0.0
        },
        {
          "id": 1,
          "value": 0.0
        },
        {
          "id": 2,
          "value": 0.0
        },
        {
          "id": 3,
          "value": 0.0
        },
        {
          "id": 4,
          "value": 7.07999992
        },
        {
          "id": 5,
          "value": 0.0
        },
        {
          "id": 6,
          "value": 0.0
        },
        {
          "id": 7,
          "value": 0.0
        }
      ],
      "leftModuleId": 35,
      "data": {
        "lissajous": 0,
        "external": 0
      },
      "pos": [
        10,
        0
      ]
    }
  ],
  "cables": [
    {
      "id": 54,
      "outputModuleId": 28,
      "outputId": 0,
      "inputModuleId": 29,
      "inputId": 0,
      "color": "#c91847"
    },
    {
      "id": 55,
      "outputModuleId": 28,
      "outputId": 0,
      "inputModuleId": 29,
      "inputId": 1,
      "color": "#c91847"
    },
    {
      "id": 60,
      "outputModuleId": 34,
      "outputId": 3,
      "inputModuleId": 33,
      "inputId": 0,
      "color": "#c91847"
    },
    {
      "id": 61,
      "outputModuleId": 34,
      "outputId": 3,
      "inputModuleId": 28,
      "inputId": 1,
      "color": "#c91847"
    },
    {
      "id": 62,
      "outputModuleId": 35,
      "outputId": 0,
      "inputModuleId": 34,
      "inputId": 3,
      "color": "#0c8e15"
    },
    {
      "id": 59,
      "outputModuleId": 35,
      "outputId": 0,
      "inputModuleId": 36,
      "inputId": 1,
      "color": "#0c8e15"
    }
  ]
}