{
  "version": "1.1.6",
  "modules": [
    {
      "id": 30,
      "plugin": "NYSTHI",
      "version": "1.0.17",
      "model": "HotTuna",
      "params": [
        {
          "id": 0,
          "value": 0.0
        },
        {
          "id": 1,
          "value": 0.0
        },
        {
          "id": 2,
          "value": 0.0
        },
        {
          "id": 3,
          "value": 0.0
        },
        {
          "id": 4,
          "value": 0.0
        },
        {
          "id": 5,
          "value": 0.0
        }
      ],
      "leftModuleId": 31,
      "data": {
        "m_use_DOREMI": false,
        "m_low_power_mode": false,
        "m_use_bemolle": false
      },
      "pos": [
        51,
        1
      ]
    },
    {
      "id": 31,
      "plugin": "Fundamental",
      "version": "1.4.0",
      "model": "VCO",
      "params": [
        {
          "id": 0,
          "value": 1.0
        },
        {
          "id": 1,
          "value": 1.0
        },
        {
          "id": 2,
          "value": 8.99998951
        },
        {
          "id": 3,
          "value": 0.0
        },
        {
          "id": 4,
          "value": 0.0
        },
        {
          "id": 5,
          "value": 0.5
        },
        {
          "id": 6,
          "value": 0.0
        }
      ],
      "leftModuleId": 32,
      "rightModuleId": 30,
      "pos": [
        41,
        1
      ]
    },
    {
      "id": 32,
      "plugin": "Befaco",
      "version": "1.0.1",
      "model": "DualAtenuverter",
      "params": [
        {
          "id": 0,
          "value": 0.0
        },
        {
          "id": 1,
          "value": 0.0
        },
        {
          "id": 2,
          "value": 0.0
        },
        {
          "id": 3,
          "value": 0.0
        }
      ],
      "rightModuleId": 31,
      "pos": [
        36,
        1
      ]
    },
    {
      "id": 33,
      "plugin": "NYSTHI",
      "version": "1.0.17",
      "model": "TZVU",
      "params": [
        {
          "id": 0,
          "value": 0.0
        },
        {
          "id": 1,
          "value": 0.0
        },
        {
          "id": 2,
          "value": 100.0
        },
        {
          "id": 3,
          "value": 100.0
        }
      ],
      "leftModuleId": 35,
      "data": {
        "m_v10_a": false,
        "m_v10_b": false,
        "m_present_big_value": false,
        "m_remove_glass": false
      },
      "pos": [
        24,
        1
      ]
    },
    {
      "id": 34,
      "plugin": "Core",
      "version": "1.1.6",
      "model": "Notes",
      "params": [],
      "rightModuleId": 35,
      "text": "Volt <----> Pitch\n\n1V  = 1 Octave\n\n12 Semitones in 1 Octave\n1 Semitone:\n1V / 12 = 0.083V\n\n\nA4 = 440 Hz",
      "pos": [
        0,
        1
      ]
    },
    {
      "id": 35,
      "plugin": "ML_modules",
      "version": "1.1.2",
      "model": "VoltMeter",
      "params": [],
      "leftModuleId": 34,
      "rightModuleId": 33,
      "pos": [
        16,
        1
      ]
    },
    {
      "id": 36,
      "plugin": "Core",
      "version": "1.1.6",
      "model": "AudioInterface",
      "params": [],
      "leftModuleId": 38,
      "data": {
        "audio": {
          "driver": 5,
          "deviceName": "Apple Inc.: Built-in Output",
          "offset": 0,
          "maxChannels": 8,
          "sampleRate": 44100,
          "blockSize": 256
        }
      },
      "pos": [
        73,
        1
      ]
    },
    {
      "id": 38,
      "plugin": "Fundamental",
      "version": "1.4.0",
      "model": "VCMixer",
      "params": [
        {
          "id": 0,
          "value": 0.395999908
        },
        {
          "id": 1,
          "value": 1.0
        },
        {
          "id": 2,
          "value": 1.0
        },
        {
          "id": 3,
          "value": 1.0
        },
        {
          "id": 4,
          "value": 1.0
        }
      ],
      "rightModuleId": 36,
      "pos": [
        63,
        1
      ]
    },
    {
      "id": 42,
      "plugin": "Fundamental",
      "version": "1.4.0",
      "model": "Scope",
      "params": [
        {
          "id": 0,
          "value": 0.0
        },
        {
          "id": 1,
          "value": 0.0
        },
        {
          "id": 2,
          "value": 0.0
        },
        {
          "id": 3,
          "value": 0.0
        },
        {
          "id": 4,
          "value": 6.0
        },
        {
          "id": 5,
          "value": 0.0
        },
        {
          "id": 6,
          "value": 0.0
        },
        {
          "id": 7,
          "value": 0.0
        }
      ],
      "leftModuleId": 46,
      "data": {
        "lissajous": 0,
        "external": 0
      },
      "pos": [
        24,
        0
      ]
    },
    {
      "id": 39,
      "plugin": "Fundamental",
      "version": "1.4.0",
      "model": "LFO",
      "params": [
        {
          "id": 0,
          "value": 0.0
        },
        {
          "id": 1,
          "value": 1.0
        },
        {
          "id": 2,
          "value": -3.75200605
        },
        {
          "id": 3,
          "value": 0.0
        },
        {
          "id": 4,
          "value": 0.0
        },
        {
          "id": 5,
          "value": 0.5
        },
        {
          "id": 6,
          "value": 1.0
        }
      ],
      "rightModuleId": 46,
      "pos": [
        6,
        0
      ]
    },
    {
      "id": 46,
      "plugin": "CountModula",
      "version": "1.13.0",
      "model": "VoltageScaler",
      "params": [
        {
          "id": 0,
          "value": -1.0
        },
        {
          "id": 1,
          "value": 1.0
        },
        {
          "id": 2,
          "value": -0.100000001
        },
        {
          "id": 3,
          "value": 0.100000001
        }
      ],
      "leftModuleId": 39,
      "rightModuleId": 42,
      "data": {
        "moduleVersion": 1,
        "theme": 0
      },
      "pos": [
        16,
        0
      ]
    }
  ],
  "cables": [
    {
      "id": 133,
      "outputModuleId": 32,
      "outputId": 0,
      "inputModuleId": 33,
      "inputId": 1,
      "color": "#c9b70e"
    },
    {
      "id": 135,
      "outputModuleId": 32,
      "outputId": 0,
      "inputModuleId": 35,
      "inputId": 3,
      "color": "#c9b70e"
    },
    {
      "id": 141,
      "outputModuleId": 38,
      "outputId": 0,
      "inputModuleId": 36,
      "inputId": 0,
      "color": "#c91847"
    },
    {
      "id": 144,
      "outputModuleId": 38,
      "outputId": 0,
      "inputModuleId": 36,
      "inputId": 1,
      "color": "#c91847"
    },
    {
      "id": 148,
      "outputModuleId": 31,
      "outputId": 0,
      "inputModuleId": 38,
      "inputId": 1,
      "color": "#c91847"
    },
    {
      "id": 163,
      "outputModuleId": 31,
      "outputId": 0,
      "inputModuleId": 30,
      "inputId": 0,
      "color": "#c91847"
    },
    {
      "id": 165,
      "outputModuleId": 39,
      "outputId": 3,
      "inputModuleId": 46,
      "inputId": 0,
      "color": "#c9b70e"
    },
    {
      "id": 167,
      "outputModuleId": 46,
      "outputId": 0,
      "inputModuleId": 42,
      "inputId": 0,
      "color": "#c9b70e"
    },
    {
      "id": 168,
      "outputModuleId": 46,
      "outputId": 0,
      "inputModuleId": 31,
      "inputId": 0,
      "color": "#c9b70e"
    },
    {
      "id": 169,
      "outputModuleId": 46,
      "outputId": 0,
      "inputModuleId": 35,
      "inputId": 0,
      "color": "#c9b70e"
    }
  ]
}