{
  "version": "1.1.6",
  "modules": [
    {
      "id": 7,
      "plugin": "Fundamental",
      "version": "1.4.0",
      "model": "Scope",
      "params": [
        {
          "id": 0,
          "value": 0.0
        },
        {
          "id": 1,
          "value": 0.0
        },
        {
          "id": 2,
          "value": 0.0
        },
        {
          "id": 3,
          "value": 0.0
        },
        {
          "id": 4,
          "value": 16.0
        },
        {
          "id": 5,
          "value": 0.0
        },
        {
          "id": 6,
          "value": 0.0
        },
        {
          "id": 7,
          "value": 0.0
        }
      ],
      "data": {
        "lissajous": 0,
        "external": 0
      },
      "pos": [
        51,
        1
      ]
    },
    {
      "id": 93,
      "plugin": "Fundamental",
      "version": "1.4.0",
      "model": "VCA-1",
      "params": [
        {
          "id": 0,
          "value": 0.851500154
        },
        {
          "id": 1,
          "value": 1.0
        }
      ],
      "pos": [
        24,
        1
      ]
    },
    {
      "id": 94,
      "plugin": "Core",
      "version": "1.1.6",
      "model": "Notes",
      "params": [],
      "rightModuleId": 98,
      "text": "# VCA\n\nVoltage Controlled...\n\n1. Amplifier\n2. Attenuater\n3. Attenuverter\n ",
      "pos": [
        0,
        1
      ]
    },
    {
      "id": 95,
      "plugin": "Bogaudio",
      "version": "1.1.35",
      "model": "Bogaudio-Sine",
      "params": [
        {
          "id": 0,
          "value": 0.0
        },
        {
          "id": 1,
          "value": 0.0
        },
        {
          "id": 2,
          "value": 0.0
        },
        {
          "id": 3,
          "value": 0.0
        }
      ],
      "leftModuleId": 98,
      "data": {
        "poly_input": 0,
        "wave": 0,
        "fm_mode": false,
        "linear_mode": false
      },
      "pos": [
        19,
        1
      ]
    },
    {
      "id": 97,
      "plugin": "AudibleInstruments",
      "version": "1.5.0",
      "model": "Blinds",
      "params": [
        {
          "id": 0,
          "value": 1.0
        },
        {
          "id": 1,
          "value": 0.0
        },
        {
          "id": 2,
          "value": 0.0
        },
        {
          "id": 3,
          "value": 0.0
        },
        {
          "id": 4,
          "value": -1.0
        },
        {
          "id": 5,
          "value": 0.0
        },
        {
          "id": 6,
          "value": 0.0
        },
        {
          "id": 7,
          "value": 0.0
        }
      ],
      "pos": [
        37,
        1
      ]
    },
    {
      "id": 98,
      "plugin": "Stoermelder-P1",
      "version": "1.8.0",
      "model": "Glue",
      "params": [
        {
          "id": 0,
          "value": 0.0
        },
        {
          "id": 1,
          "value": 0.0
        },
        {
          "id": 2,
          "value": 0.0
        },
        {
          "id": 3,
          "value": 0.0
        },
        {
          "id": 4,
          "value": 0.0
        }
      ],
      "leftModuleId": 94,
      "rightModuleId": 95,
      "data": {
        "panelTheme": 1,
        "defaultSize": 16.0,
        "defaultWidth": 80.0,
        "defaultAngle": 0.0,
        "defaultOpacity": 1.0,
        "defaultColor": "#dcff46",
        "defaultFont": 0,
        "defaultFontColor": "#080808",
        "skewLabels": true,
        "labels": [
          {
            "moduleId": 93,
            "x": -15.3984375,
            "y": -0.8984375,
            "angle": 0.0,
            "skew": -0.383392155,
            "opacity": 1.0,
            "width": 80.0,
            "size": 16.0,
            "text": "Attenuator",
            "color": "#ff7455",
            "font": 0,
            "fontColor": "#080808"
          },
          {
            "moduleId": 97,
            "x": 54.5742188,
            "y": -1.97265625,
            "angle": 0.0,
            "skew": -1.99606371,
            "opacity": 1.0,
            "width": 80.0,
            "size": 16.0,
            "text": "Attenuverter",
            "color": "#dcff46",
            "font": 0,
            "fontColor": "#080808"
          },
          {
            "moduleId": 99,
            "x": -16.0898438,
            "y": 4.2109375,
            "angle": 0.0,
            "skew": -3.90701962,
            "opacity": 1.0,
            "width": 80.0,
            "size": 16.0,
            "text": "LFO",
            "color": "#1ba8b1",
            "font": 0,
            "fontColor": "#080808"
          },
          {
            "moduleId": 100,
            "x": -0.96484375,
            "y": 0.3984375,
            "angle": 0.0,
            "skew": -1.25892496,
            "opacity": 1.0,
            "width": 80.0,
            "size": 16.0,
            "text": "Amplifier",
            "color": "#ff65a3",
            "font": 0,
            "fontColor": "#080808"
          }
        ]
      },
      "pos": [
        16,
        1
      ]
    },
    {
      "id": 99,
      "plugin": "Bogaudio",
      "version": "1.1.35",
      "model": "Bogaudio-LLFO",
      "params": [
        {
          "id": 0,
          "value": 2.20350027
        },
        {
          "id": 1,
          "value": 1.0
        },
        {
          "id": 2,
          "value": 0.0
        },
        {
          "id": 3,
          "value": 1.0
        },
        {
          "id": 4,
          "value": 1.0
        }
      ],
      "data": {},
      "pos": [
        16,
        0
      ]
    },
    {
      "id": 100,
      "plugin": "ZZC",
      "version": "1.1.3",
      "model": "SC-VCA",
      "params": [
        {
          "id": 0,
          "value": 2.0
        },
        {
          "id": 1,
          "value": 10.0
        },
        {
          "id": 2,
          "value": 0.0
        }
      ],
      "data": {
        "exponentialMode": true
      },
      "pos": [
        30,
        1
      ]
    }
  ],
  "cables": [
    {
      "id": 119,
      "outputModuleId": 95,
      "outputId": 0,
      "inputModuleId": 7,
      "inputId": 0,
      "color": "#c91847"
    },
    {
      "id": 122,
      "outputModuleId": 99,
      "outputId": 0,
      "inputModuleId": 93,
      "inputId": 0,
      "color": "#0c8e15"
    },
    {
      "id": 123,
      "outputModuleId": 95,
      "outputId": 0,
      "inputModuleId": 100,
      "inputId": 1,
      "color": "#c91847"
    },
    {
      "id": 126,
      "outputModuleId": 95,
      "outputId": 0,
      "inputModuleId": 97,
      "inputId": 0,
      "color": "#c91847"
    },
    {
      "id": 124,
      "outputModuleId": 97,
      "outputId": 0,
      "inputModuleId": 7,
      "inputId": 1,
      "color": "#c91847"
    },
    {
      "id": 125,
      "outputModuleId": 99,
      "outputId": 0,
      "inputModuleId": 100,
      "inputId": 3,
      "color": "#0c8e15"
    },
    {
      "id": 127,
      "outputModuleId": 99,
      "outputId": 0,
      "inputModuleId": 97,
      "inputId": 4,
      "color": "#0c8e15"
    }
  ]
}