{
  "version": "1.1.6",
  "modules": [
    {
      "id": 22,
      "plugin": "Fundamental",
      "version": "1.4.0",
      "model": "SequentialSwitch1",
      "params": [
        {
          "id": 0,
          "value": 0.0
        }
      ],
      "leftModuleId": 24,
      "pos": [
        28,
        0
      ]
    },
    {
      "id": 23,
      "plugin": "Fundamental",
      "version": "1.4.0",
      "model": "SequentialSwitch2",
      "params": [
        {
          "id": 0,
          "value": 0.0
        }
      ],
      "pos": [
        33,
        0
      ]
    },
    {
      "id": 24,
      "plugin": "Stoermelder-P1",
      "version": "1.8.0",
      "model": "Glue",
      "params": [
        {
          "id": 0,
          "value": 0.0
        },
        {
          "id": 1,
          "value": 0.0
        },
        {
          "id": 2,
          "value": 0.0
        },
        {
          "id": 3,
          "value": 0.0
        },
        {
          "id": 4,
          "value": 0.0
        }
      ],
      "rightModuleId": 22,
      "data": {
        "panelTheme": 1,
        "defaultSize": 16.0,
        "defaultWidth": 80.0,
        "defaultAngle": 0.0,
        "defaultOpacity": 1.0,
        "defaultColor": "#dcff46",
        "defaultFont": 0,
        "defaultFontColor": "#080808",
        "skewLabels": true,
        "labels": [
          {
            "moduleId": 22,
            "x": -14.1191406,
            "y": 3.96484375,
            "angle": 0.0,
            "skew": 4.18452215,
            "opacity": 1.0,
            "width": 80.0,
            "size": 16.0,
            "text": "1 to 4",
            "color": "#dcff46",
            "font": 0,
            "fontColor": "#080808"
          },
          {
            "moduleId": 23,
            "x": -9.23242188,
            "y": -0.2421875,
            "angle": 0.0,
            "skew": -1.72049415,
            "opacity": 1.0,
            "width": 80.0,
            "size": 16.0,
            "text": "4 to 1",
            "color": "#dcff46",
            "font": 0,
            "fontColor": "#080808"
          },
          {
            "moduleId": 34,
            "x": 36.359375,
            "y": 2.44921875,
            "angle": 0.0,
            "skew": -0.374348819,
            "opacity": 1.0,
            "width": 80.0,
            "size": 16.0,
            "text": "Clock",
            "color": "#dcff46",
            "font": 0,
            "fontColor": "#080808"
          }
        ]
      },
      "pos": [
        25,
        0
      ]
    },
    {
      "id": 25,
      "plugin": "Fundamental",
      "version": "1.4.0",
      "model": "SequentialSwitch2",
      "params": [
        {
          "id": 0,
          "value": 0.0
        }
      ],
      "rightModuleId": 26,
      "pos": [
        33,
        2
      ]
    },
    {
      "id": 26,
      "plugin": "Fundamental",
      "version": "1.4.0",
      "model": "Scope",
      "params": [
        {
          "id": 0,
          "value": 0.0
        },
        {
          "id": 1,
          "value": 0.0
        },
        {
          "id": 2,
          "value": 0.0
        },
        {
          "id": 3,
          "value": 0.0
        },
        {
          "id": 4,
          "value": 6.0
        },
        {
          "id": 5,
          "value": 0.0
        },
        {
          "id": 6,
          "value": 0.0
        },
        {
          "id": 7,
          "value": 0.0
        }
      ],
      "leftModuleId": 25,
      "data": {
        "lissajous": 0,
        "external": 0
      },
      "pos": [
        36,
        2
      ]
    },
    {
      "id": 27,
      "plugin": "Fundamental",
      "version": "1.4.0",
      "model": "VCO",
      "params": [
        {
          "id": 0,
          "value": 1.0
        },
        {
          "id": 1,
          "value": 1.0
        },
        {
          "id": 2,
          "value": -13.4459972
        },
        {
          "id": 3,
          "value": 0.0
        },
        {
          "id": 4,
          "value": 0.0
        },
        {
          "id": 5,
          "value": 0.5
        },
        {
          "id": 6,
          "value": 0.0
        }
      ],
      "rightModuleId": 31,
      "pos": [
        51,
        2
      ]
    },
    {
      "id": 29,
      "plugin": "Fundamental",
      "version": "1.4.0",
      "model": "VCA-1",
      "params": [
        {
          "id": 0,
          "value": 0.0
        },
        {
          "id": 1,
          "value": 1.0
        }
      ],
      "rightModuleId": 30,
      "pos": [
        72,
        2
      ]
    },
    {
      "id": 30,
      "plugin": "Core",
      "version": "1.1.6",
      "model": "AudioInterface",
      "params": [],
      "leftModuleId": 29,
      "data": {
        "audio": {
          "driver": 5,
          "offset": 0,
          "maxChannels": 8,
          "sampleRate": 44100,
          "blockSize": 256
        }
      },
      "pos": [
        75,
        2
      ]
    },
    {
      "id": 31,
      "plugin": "Fundamental",
      "version": "1.4.0",
      "model": "VCF",
      "params": [
        {
          "id": 0,
          "value": 0.406999737
        },
        {
          "id": 1,
          "value": 0.5
        },
        {
          "id": 2,
          "value": 0.0
        },
        {
          "id": 3,
          "value": 1.0
        },
        {
          "id": 4,
          "value": 0.0
        }
      ],
      "leftModuleId": 27,
      "pos": [
        61,
        2
      ]
    },
    {
      "id": 32,
      "plugin": "Fundamental",
      "version": "1.4.0",
      "model": "LFO",
      "params": [
        {
          "id": 0,
          "value": 1.0
        },
        {
          "id": 1,
          "value": 1.0
        },
        {
          "id": 2,
          "value": 0.351999998
        },
        {
          "id": 3,
          "value": 0.0
        },
        {
          "id": 4,
          "value": 0.0
        },
        {
          "id": 5,
          "value": 0.5
        },
        {
          "id": 6,
          "value": 0.0
        }
      ],
      "rightModuleId": 33,
      "pos": [
        0,
        2
      ]
    },
    {
      "id": 33,
      "plugin": "Fundamental",
      "version": "1.4.0",
      "model": "LFO",
      "params": [
        {
          "id": 0,
          "value": 1.0
        },
        {
          "id": 1,
          "value": 1.0
        },
        {
          "id": 2,
          "value": 2.08000064
        },
        {
          "id": 3,
          "value": 0.0
        },
        {
          "id": 4,
          "value": 0.0
        },
        {
          "id": 5,
          "value": 0.5
        },
        {
          "id": 6,
          "value": 0.0
        }
      ],
      "leftModuleId": 32,
      "pos": [
        10,
        2
      ]
    },
    {
      "id": 34,
      "plugin": "Fundamental",
      "version": "1.4.0",
      "model": "LFO",
      "params": [
        {
          "id": 0,
          "value": 1.0
        },
        {
          "id": 1,
          "value": 1.0
        },
        {
          "id": 2,
          "value": 0.16300109
        },
        {
          "id": 3,
          "value": 0.0
        },
        {
          "id": 4,
          "value": 0.0
        },
        {
          "id": 5,
          "value": 0.5
        },
        {
          "id": 6,
          "value": 0.0
        }
      ],
      "pos": [
        22,
        2
      ]
    },
    {
      "id": 35,
      "plugin": "Core",
      "version": "1.1.6",
      "model": "AudioInterface",
      "params": [],
      "data": {
        "audio": {
          "driver": 5,
          "deviceName": "Apple Inc.: Built-in Output",
          "offset": 0,
          "maxChannels": 8,
          "sampleRate": 44100,
          "blockSize": 256
        }
      },
      "pos": [
        75,
        4
      ]
    },
    {
      "id": 36,
      "plugin": "Fundamental",
      "version": "1.4.0",
      "model": "VCA-1",
      "params": [
        {
          "id": 0,
          "value": 0.0
        },
        {
          "id": 1,
          "value": 1.0
        }
      ],
      "leftModuleId": 37,
      "pos": [
        66,
        4
      ]
    },
    {
      "id": 37,
      "plugin": "Fundamental",
      "version": "1.4.0",
      "model": "VCO",
      "params": [
        {
          "id": 0,
          "value": 1.0
        },
        {
          "id": 1,
          "value": 1.0
        },
        {
          "id": 2,
          "value": -28.0260124
        },
        {
          "id": 3,
          "value": 0.0
        },
        {
          "id": 4,
          "value": 0.0
        },
        {
          "id": 5,
          "value": 0.5
        },
        {
          "id": 6,
          "value": 0.0
        }
      ],
      "leftModuleId": 38,
      "rightModuleId": 36,
      "pos": [
        56,
        4
      ]
    },
    {
      "id": 38,
      "plugin": "Fundamental",
      "version": "1.4.0",
      "model": "Quantizer",
      "params": [],
      "leftModuleId": 39,
      "rightModuleId": 37,
      "data": {
        "enabledNotes": [
          true,
          false,
          true,
          false,
          true,
          true,
          false,
          true,
          false,
          true,
          false,
          true
        ]
      },
      "pos": [
        53,
        4
      ]
    },
    {
      "id": 39,
      "plugin": "Fundamental",
      "version": "1.4.0",
      "model": "SequentialSwitch2",
      "params": [
        {
          "id": 0,
          "value": 1.0
        }
      ],
      "leftModuleId": 40,
      "rightModuleId": 38,
      "pos": [
        50,
        4
      ]
    },
    {
      "id": 40,
      "plugin": "Fundamental",
      "version": "1.4.0",
      "model": "SEQ3",
      "params": [
        {
          "id": 0,
          "value": 2.91200066
        },
        {
          "id": 1,
          "value": 0.0
        },
        {
          "id": 2,
          "value": 0.0
        },
        {
          "id": 3,
          "value": 8.0
        },
        {
          "id": 4,
          "value": 0.345000029
        },
        {
          "id": 5,
          "value": 1.4849999
        },
        {
          "id": 6,
          "value": 2.7599988
        },
        {
          "id": 7,
          "value": 2.94000006
        },
        {
          "id": 8,
          "value": 3.7800014
        },
        {
          "id": 9,
          "value": 4.55999994
        },
        {
          "id": 10,
          "value": 4.3499999
        },
        {
          "id": 11,
          "value": 4.99500132
        },
        {
          "id": 12,
          "value": 4.54500103
        },
        {
          "id": 13,
          "value": 0.0
        },
        {
          "id": 14,
          "value": 4.27500057
        },
        {
          "id": 15,
          "value": 0.0
        },
        {
          "id": 16,
          "value": 3.72000027
        },
        {
          "id": 17,
          "value": 0.0
        },
        {
          "id": 18,
          "value": 4.20000029
        },
        {
          "id": 19,
          "value": 0.0
        },
        {
          "id": 20,
          "value": 4.88999987
        },
        {
          "id": 21,
          "value": 3.2250011
        },
        {
          "id": 22,
          "value": 2.82000089
        },
        {
          "id": 23,
          "value": 2.33999991
        },
        {
          "id": 24,
          "value": 1.52999973
        },
        {
          "id": 25,
          "value": 1.42499995
        },
        {
          "id": 26,
          "value": 0.839999914
        },
        {
          "id": 27,
          "value": 0.0
        },
        {
          "id": 28,
          "value": 0.0
        },
        {
          "id": 29,
          "value": 0.0
        },
        {
          "id": 30,
          "value": 0.0
        },
        {
          "id": 31,
          "value": 0.0
        },
        {
          "id": 32,
          "value": 0.0
        },
        {
          "id": 33,
          "value": 0.0
        },
        {
          "id": 34,
          "value": 0.0
        },
        {
          "id": 35,
          "value": 0.0
        }
      ],
      "rightModuleId": 39,
      "data": {
        "running": true,
        "gates": [
          1,
          1,
          1,
          1,
          1,
          1,
          1,
          1
        ]
      },
      "pos": [
        28,
        4
      ]
    }
  ],
  "cables": [
    {
      "id": 36,
      "outputModuleId": 29,
      "outputId": 0,
      "inputModuleId": 30,
      "inputId": 0,
      "color": "#c91847"
    },
    {
      "id": 37,
      "outputModuleId": 27,
      "outputId": 2,
      "inputModuleId": 31,
      "inputId": 3,
      "color": "#c91847"
    },
    {
      "id": 38,
      "outputModuleId": 31,
      "outputId": 0,
      "inputModuleId": 29,
      "inputId": 1,
      "color": "#c91847"
    },
    {
      "id": 39,
      "outputModuleId": 29,
      "outputId": 0,
      "inputModuleId": 30,
      "inputId": 1,
      "color": "#0986ad"
    },
    {
      "id": 44,
      "outputModuleId": 34,
      "outputId": 3,
      "inputModuleId": 25,
      "inputId": 0,
      "color": "#0986ad"
    },
    {
      "id": 46,
      "outputModuleId": 32,
      "outputId": 0,
      "inputModuleId": 25,
      "inputId": 2,
      "color": "#0c8e15"
    },
    {
      "id": 47,
      "outputModuleId": 32,
      "outputId": 2,
      "inputModuleId": 25,
      "inputId": 3,
      "color": "#0c8e15"
    },
    {
      "id": 48,
      "outputModuleId": 33,
      "outputId": 1,
      "inputModuleId": 25,
      "inputId": 4,
      "color": "#0c8e15"
    },
    {
      "id": 49,
      "outputModuleId": 33,
      "outputId": 3,
      "inputModuleId": 25,
      "inputId": 5,
      "color": "#0c8e15"
    },
    {
      "id": 50,
      "outputModuleId": 25,
      "outputId": 0,
      "inputModuleId": 26,
      "inputId": 0,
      "color": "#0c8e15"
    },
    {
      "id": 51,
      "outputModuleId": 25,
      "outputId": 0,
      "inputModuleId": 31,
      "inputId": 0,
      "color": "#0c8e15"
    },
    {
      "id": 52,
      "outputModuleId": 40,
      "outputId": 4,
      "inputModuleId": 39,
      "inputId": 0,
      "color": "#0986ad"
    },
    {
      "id": 53,
      "outputModuleId": 40,
      "outputId": 1,
      "inputModuleId": 39,
      "inputId": 2,
      "color": "#c9b70e"
    },
    {
      "id": 54,
      "outputModuleId": 40,
      "outputId": 2,
      "inputModuleId": 39,
      "inputId": 3,
      "color": "#c9b70e"
    },
    {
      "id": 55,
      "outputModuleId": 39,
      "outputId": 0,
      "inputModuleId": 38,
      "inputId": 0,
      "color": "#c9b70e"
    },
    {
      "id": 56,
      "outputModuleId": 38,
      "outputId": 0,
      "inputModuleId": 37,
      "inputId": 0,
      "color": "#0c8e15"
    },
    {
      "id": 57,
      "outputModuleId": 37,
      "outputId": 0,
      "inputModuleId": 36,
      "inputId": 1,
      "color": "#c91847"
    },
    {
      "id": 58,
      "outputModuleId": 36,
      "outputId": 0,
      "inputModuleId": 35,
      "inputId": 0,
      "color": "#c91847"
    },
    {
      "id": 59,
      "outputModuleId": 36,
      "outputId": 0,
      "inputModuleId": 35,
      "inputId": 1,
      "color": "#0986ad"
    },
    {
      "id": 60,
      "outputModuleId": 40,
      "outputId": 3,
      "inputModuleId": 39,
      "inputId": 4,
      "color": "#c9b70e"
    }
  ]
}