{
  "version": "1.1.6",
  "modules": [
    {
      "id": 61,
      "plugin": "Bogaudio",
      "version": "1.1.35",
      "model": "Bogaudio-AnalyzerXL",
      "params": [],
      "leftModuleId": 65,
      "data": {
        "frequency_plot": "log",
        "range": 0.0,
        "amplitude_plot": "decibels_80",
        "smooth": 0.25,
        "quality": "good",
        "window": "kaiser"
      },
      "pos": [
        17,
        0
      ]
    },
    {
      "id": 62,
      "plugin": "Fundamental",
      "version": "1.4.0",
      "model": "VCMixer",
      "params": [
        {
          "id": 0,
          "value": 1.0
        },
        {
          "id": 1,
          "value": 0.312692314
        },
        {
          "id": 2,
          "value": 0.282994002
        },
        {
          "id": 3,
          "value": 1.0
        },
        {
          "id": 4,
          "value": 1.0
        }
      ],
      "leftModuleId": 71,
      "rightModuleId": 63,
      "pos": [
        68,
        1
      ]
    },
    {
      "id": 63,
      "plugin": "Core",
      "version": "1.1.6",
      "model": "AudioInterface",
      "params": [],
      "leftModuleId": 62,
      "data": {
        "audio": {
          "driver": 5,
          "deviceName": "Apple Inc.: Built-in Output",
          "offset": 0,
          "maxChannels": 8,
          "sampleRate": 44100,
          "blockSize": 256
        }
      },
      "pos": [
        78,
        1
      ]
    },
    {
      "id": 64,
      "plugin": "Fundamental",
      "version": "1.4.0",
      "model": "Noise",
      "params": [],
      "pos": [
        2,
        0
      ]
    },
    {
      "id": 65,
      "plugin": "Bogaudio",
      "version": "1.1.35",
      "model": "Bogaudio-Switch81",
      "params": [
        {
          "id": 0,
          "value": 0.0
        },
        {
          "id": 1,
          "value": 0.0
        },
        {
          "id": 2,
          "value": 1.0
        },
        {
          "id": 3,
          "value": 0.0
        },
        {
          "id": 4,
          "value": 0.0
        },
        {
          "id": 5,
          "value": 0.0
        },
        {
          "id": 6,
          "value": 0.0
        },
        {
          "id": 7,
          "value": 0.0
        }
      ],
      "rightModuleId": 61,
      "data": {
        "clipping_mode": 0,
        "input_gain_db": 0.0,
        "sum": true,
        "inverting": "disabled",
        "row_exclusive": false,
        "column_exclusive": false
      },
      "pos": [
        11,
        0
      ]
    },
    {
      "id": 66,
      "plugin": "Fundamental",
      "version": "1.4.0",
      "model": "SEQ3",
      "params": [
        {
          "id": 0,
          "value": 2.91200113
        },
        {
          "id": 1,
          "value": 0.0
        },
        {
          "id": 2,
          "value": 0.0
        },
        {
          "id": 3,
          "value": 8.0
        },
        {
          "id": 4,
          "value": 0.0
        },
        {
          "id": 5,
          "value": 0.404999971
        },
        {
          "id": 6,
          "value": 1.06499994
        },
        {
          "id": 7,
          "value": 0.674999952
        },
        {
          "id": 8,
          "value": 1.24500036
        },
        {
          "id": 9,
          "value": 1.33500016
        },
        {
          "id": 10,
          "value": 0.660000086
        },
        {
          "id": 11,
          "value": 0.0
        },
        {
          "id": 12,
          "value": 0.0
        },
        {
          "id": 13,
          "value": 0.0
        },
        {
          "id": 14,
          "value": 0.0
        },
        {
          "id": 15,
          "value": 0.0
        },
        {
          "id": 16,
          "value": 0.0
        },
        {
          "id": 17,
          "value": 0.0
        },
        {
          "id": 18,
          "value": 0.0
        },
        {
          "id": 19,
          "value": 0.0
        },
        {
          "id": 20,
          "value": 0.0
        },
        {
          "id": 21,
          "value": 0.0
        },
        {
          "id": 22,
          "value": 0.0
        },
        {
          "id": 23,
          "value": 0.0
        },
        {
          "id": 24,
          "value": 0.0
        },
        {
          "id": 25,
          "value": 0.0
        },
        {
          "id": 26,
          "value": 0.0
        },
        {
          "id": 27,
          "value": 0.0
        },
        {
          "id": 28,
          "value": 0.0
        },
        {
          "id": 29,
          "value": 0.0
        },
        {
          "id": 30,
          "value": 0.0
        },
        {
          "id": 31,
          "value": 0.0
        },
        {
          "id": 32,
          "value": 0.0
        },
        {
          "id": 33,
          "value": 0.0
        },
        {
          "id": 34,
          "value": 0.0
        },
        {
          "id": 35,
          "value": 0.0
        }
      ],
      "rightModuleId": 67,
      "data": {
        "running": true,
        "gates": [
          1,
          0,
          1,
          1,
          0,
          1,
          1,
          1
        ]
      },
      "pos": [
        0,
        2
      ]
    },
    {
      "id": 67,
      "plugin": "JW-Modules",
      "version": "1.0.20",
      "model": "Quantizer",
      "params": [
        {
          "id": 0,
          "value": 0.0
        },
        {
          "id": 1,
          "value": 9.0
        }
      ],
      "leftModuleId": 66,
      "data": {},
      "pos": [
        22,
        2
      ]
    },
    {
      "id": 68,
      "plugin": "Fundamental",
      "version": "1.4.0",
      "model": "Noise",
      "params": [],
      "pos": [
        28,
        2
      ]
    },
    {
      "id": 69,
      "plugin": "Fundamental",
      "version": "1.4.0",
      "model": "VCO",
      "params": [
        {
          "id": 0,
          "value": 0.0
        },
        {
          "id": 1,
          "value": 1.0
        },
        {
          "id": 2,
          "value": -22.8420048
        },
        {
          "id": 3,
          "value": 0.0
        },
        {
          "id": 4,
          "value": 0.0
        },
        {
          "id": 5,
          "value": 0.5
        },
        {
          "id": 6,
          "value": 0.0
        }
      ],
      "rightModuleId": 70,
      "pos": [
        33,
        2
      ]
    },
    {
      "id": 70,
      "plugin": "Fundamental",
      "version": "1.4.0",
      "model": "VCF",
      "params": [
        {
          "id": 0,
          "value": 0.665000439
        },
        {
          "id": 1,
          "value": 0.360499978
        },
        {
          "id": 2,
          "value": 0.0
        },
        {
          "id": 3,
          "value": 1.0
        },
        {
          "id": 4,
          "value": 0.0
        }
      ],
      "leftModuleId": 69,
      "pos": [
        43,
        2
      ]
    },
    {
      "id": 71,
      "plugin": "Fundamental",
      "version": "1.4.0",
      "model": "Mutes",
      "params": [
        {
          "id": 0,
          "value": 0.0
        },
        {
          "id": 1,
          "value": 0.0
        },
        {
          "id": 2,
          "value": 0.0
        },
        {
          "id": 3,
          "value": 0.0
        },
        {
          "id": 4,
          "value": 0.0
        },
        {
          "id": 5,
          "value": 0.0
        },
        {
          "id": 6,
          "value": 0.0
        },
        {
          "id": 7,
          "value": 0.0
        },
        {
          "id": 8,
          "value": 0.0
        },
        {
          "id": 9,
          "value": 0.0
        }
      ],
      "rightModuleId": 62,
      "data": {
        "states": [
          false,
          false,
          true,
          true,
          true,
          true,
          true,
          true,
          true,
          true
        ]
      },
      "pos": [
        60,
        1
      ]
    }
  ],
  "cables": [
    {
      "id": 117,
      "outputModuleId": 64,
      "outputId": 0,
      "inputModuleId": 65,
      "inputId": 0,
      "color": "#c91847"
    },
    {
      "id": 118,
      "outputModuleId": 64,
      "outputId": 1,
      "inputModuleId": 65,
      "inputId": 1,
      "color": "#c91847"
    },
    {
      "id": 119,
      "outputModuleId": 64,
      "outputId": 2,
      "inputModuleId": 65,
      "inputId": 2,
      "color": "#c91847"
    },
    {
      "id": 120,
      "outputModuleId": 64,
      "outputId": 3,
      "inputModuleId": 65,
      "inputId": 3,
      "color": "#c91847"
    },
    {
      "id": 121,
      "outputModuleId": 64,
      "outputId": 4,
      "inputModuleId": 65,
      "inputId": 4,
      "color": "#c91847"
    },
    {
      "id": 122,
      "outputModuleId": 64,
      "outputId": 5,
      "inputModuleId": 65,
      "inputId": 5,
      "color": "#c91847"
    },
    {
      "id": 123,
      "outputModuleId": 64,
      "outputId": 6,
      "inputModuleId": 65,
      "inputId": 6,
      "color": "#c91847"
    },
    {
      "id": 124,
      "outputModuleId": 65,
      "outputId": 0,
      "inputModuleId": 61,
      "inputId": 0,
      "color": "#c91847"
    },
    {
      "id": 126,
      "outputModuleId": 62,
      "outputId": 0,
      "inputModuleId": 63,
      "inputId": 0,
      "color": "#c91847"
    },
    {
      "id": 127,
      "outputModuleId": 62,
      "outputId": 0,
      "inputModuleId": 63,
      "inputId": 1,
      "color": "#0986ad"
    },
    {
      "id": 125,
      "outputModuleId": 65,
      "outputId": 0,
      "inputModuleId": 71,
      "inputId": 0,
      "color": "#c91847"
    },
    {
      "id": 129,
      "outputModuleId": 71,
      "outputId": 0,
      "inputModuleId": 62,
      "inputId": 1,
      "color": "#c91847"
    },
    {
      "id": 131,
      "outputModuleId": 69,
      "outputId": 2,
      "inputModuleId": 70,
      "inputId": 3,
      "color": "#c91847"
    },
    {
      "id": 132,
      "outputModuleId": 66,
      "outputId": 1,
      "inputModuleId": 67,
      "inputId": 2,
      "color": "#c9b70e"
    },
    {
      "id": 133,
      "outputModuleId": 67,
      "outputId": 0,
      "inputModuleId": 69,
      "inputId": 0,
      "color": "#c9b70e"
    },
    {
      "id": 130,
      "outputModuleId": 71,
      "outputId": 1,
      "inputModuleId": 62,
      "inputId": 2,
      "color": "#c91847"
    },
    {
      "id": 128,
      "outputModuleId": 70,
      "outputId": 0,
      "inputModuleId": 71,
      "inputId": 1,
      "color": "#c91847"
    },
    {
      "id": 134,
      "outputModuleId": 68,
      "outputId": 3,
      "inputModuleId": 70,
      "inputId": 0,
      "color": "#0c8e15"
    }
  ]
}