{
  "version": "1.1.6",
  "modules": [
    {
      "id": 97,
      "plugin": "ML_modules",
      "version": "1.1.2",
      "model": "ShiftRegister",
      "params": [
        {
          "id": 0,
          "value": 0.0
        },
        {
          "id": 1,
          "value": 0.0
        },
        {
          "id": 2,
          "value": 0.0
        },
        {
          "id": 3,
          "value": 0.0
        },
        {
          "id": 4,
          "value": 0.0
        },
        {
          "id": 5,
          "value": 0.0
        },
        {
          "id": 6,
          "value": 0.0
        },
        {
          "id": 7,
          "value": 0.0
        },
        {
          "id": 8,
          "value": 0.0
        }
      ],
      "pos": [
        21,
        0
      ]
    },
    {
      "id": 98,
      "plugin": "NYSTHI",
      "version": "1.0.17",
      "model": "HotTuna",
      "params": [
        {
          "id": 0,
          "value": 0.0
        },
        {
          "id": 1,
          "value": 0.0
        },
        {
          "id": 2,
          "value": 0.0
        },
        {
          "id": 3,
          "value": 0.0
        },
        {
          "id": 4,
          "value": 0.0
        },
        {
          "id": 5,
          "value": 0.0
        }
      ],
      "rightModuleId": 99,
      "data": {
        "m_use_DOREMI": false,
        "m_low_power_mode": false,
        "m_use_bemolle": false
      },
      "pos": [
        28,
        0
      ]
    },
    {
      "id": 99,
      "plugin": "NYSTHI",
      "version": "1.0.17",
      "model": "HotTuna",
      "params": [
        {
          "id": 0,
          "value": 0.0
        },
        {
          "id": 1,
          "value": 0.0
        },
        {
          "id": 2,
          "value": 0.0
        },
        {
          "id": 3,
          "value": 0.0
        },
        {
          "id": 4,
          "value": 0.0
        },
        {
          "id": 5,
          "value": 0.0
        }
      ],
      "leftModuleId": 98,
      "rightModuleId": 100,
      "data": {
        "m_use_DOREMI": false,
        "m_low_power_mode": false,
        "m_use_bemolle": false
      },
      "pos": [
        34,
        0
      ]
    },
    {
      "id": 100,
      "plugin": "NYSTHI",
      "version": "1.0.17",
      "model": "HotTuna",
      "params": [
        {
          "id": 0,
          "value": 0.0
        },
        {
          "id": 1,
          "value": 0.0
        },
        {
          "id": 2,
          "value": 0.0
        },
        {
          "id": 3,
          "value": 0.0
        },
        {
          "id": 4,
          "value": 0.0
        },
        {
          "id": 5,
          "value": 0.0
        }
      ],
      "leftModuleId": 99,
      "rightModuleId": 101,
      "data": {
        "m_use_DOREMI": false,
        "m_low_power_mode": false,
        "m_use_bemolle": false
      },
      "pos": [
        40,
        0
      ]
    },
    {
      "id": 101,
      "plugin": "NYSTHI",
      "version": "1.0.17",
      "model": "HotTuna",
      "params": [
        {
          "id": 0,
          "value": 0.0
        },
        {
          "id": 1,
          "value": 0.0
        },
        {
          "id": 2,
          "value": 0.0
        },
        {
          "id": 3,
          "value": 0.0
        },
        {
          "id": 4,
          "value": 0.0
        },
        {
          "id": 5,
          "value": 0.0
        }
      ],
      "leftModuleId": 100,
      "data": {
        "m_use_DOREMI": false,
        "m_low_power_mode": false,
        "m_use_bemolle": false
      },
      "pos": [
        46,
        0
      ]
    },
    {
      "id": 102,
      "plugin": "Bogaudio",
      "version": "1.1.35",
      "model": "Bogaudio-Reftone",
      "params": [
        {
          "id": 0,
          "value": 2.0
        },
        {
          "id": 1,
          "value": 4.0
        },
        {
          "id": 2,
          "value": 0.0
        }
      ],
      "rightModuleId": 103,
      "data": {},
      "pos": [
        10,
        0
      ]
    },
    {
      "id": 103,
      "plugin": "Bogaudio",
      "version": "1.1.35",
      "model": "Bogaudio-Manual",
      "params": [
        {
          "id": 0,
          "value": 0.0
        }
      ],
      "leftModuleId": 102,
      "data": {
        "triggerOnLoad": false,
        "shouldTriggerOnLoad": true
      },
      "pos": [
        13,
        0
      ]
    },
    {
      "id": 104,
      "plugin": "Bogaudio",
      "version": "1.1.35",
      "model": "Bogaudio-Manual",
      "params": [
        {
          "id": 0,
          "value": 0.0
        }
      ],
      "leftModuleId": 119,
      "rightModuleId": 105,
      "data": {
        "triggerOnLoad": false,
        "shouldTriggerOnLoad": true
      },
      "pos": [
        10,
        1
      ]
    },
    {
      "id": 105,
      "plugin": "Bogaudio",
      "version": "1.1.35",
      "model": "Bogaudio-AddrSeq",
      "params": [
        {
          "id": 0,
          "value": 5.24699545
        },
        {
          "id": 1,
          "value": 1.0
        },
        {
          "id": 2,
          "value": 0.0
        },
        {
          "id": 3,
          "value": 0.0
        },
        {
          "id": 4,
          "value": -0.149999961
        },
        {
          "id": 5,
          "value": 0.11400003
        },
        {
          "id": 6,
          "value": -0.0869999826
        },
        {
          "id": 7,
          "value": 0.0840000063
        },
        {
          "id": 8,
          "value": 0.180000141
        },
        {
          "id": 9,
          "value": -0.026999997
        },
        {
          "id": 10,
          "value": 0.137999937
        }
      ],
      "leftModuleId": 104,
      "rightModuleId": 106,
      "data": {
        "poly_input": 0,
        "select_on_clock": false,
        "triggered_select": false,
        "reverse_on_negative_clock": false,
        "range_offset": 0.0,
        "range_scale": 10.0
      },
      "pos": [
        13,
        1
      ]
    },
    {
      "id": 106,
      "plugin": "JW-Modules",
      "version": "1.0.20",
      "model": "Quantizer",
      "params": [
        {
          "id": 0,
          "value": 0.0
        },
        {
          "id": 1,
          "value": 11.0
        }
      ],
      "leftModuleId": 105,
      "rightModuleId": 107,
      "data": {},
      "pos": [
        19,
        1
      ]
    },
    {
      "id": 107,
      "plugin": "NYSTHI",
      "version": "1.0.17",
      "model": "HotTuna",
      "params": [
        {
          "id": 0,
          "value": 0.0
        },
        {
          "id": 1,
          "value": 0.0
        },
        {
          "id": 2,
          "value": 0.0
        },
        {
          "id": 3,
          "value": 0.0
        },
        {
          "id": 4,
          "value": 0.0
        },
        {
          "id": 5,
          "value": 0.0
        }
      ],
      "leftModuleId": 106,
      "rightModuleId": 108,
      "data": {
        "m_use_DOREMI": false,
        "m_low_power_mode": false,
        "m_use_bemolle": false
      },
      "pos": [
        23,
        1
      ]
    },
    {
      "id": 108,
      "plugin": "ML_modules",
      "version": "1.1.2",
      "model": "ShiftRegister",
      "params": [
        {
          "id": 0,
          "value": 0.0
        },
        {
          "id": 1,
          "value": 0.0
        },
        {
          "id": 2,
          "value": 0.0
        },
        {
          "id": 3,
          "value": 0.0
        },
        {
          "id": 4,
          "value": 0.0
        },
        {
          "id": 5,
          "value": 0.0
        },
        {
          "id": 6,
          "value": 0.0
        },
        {
          "id": 7,
          "value": 0.0
        },
        {
          "id": 8,
          "value": 0.0
        }
      ],
      "leftModuleId": 107,
      "rightModuleId": 111,
      "pos": [
        29,
        1
      ]
    },
    {
      "id": 109,
      "plugin": "NYSTHI",
      "version": "1.0.17",
      "model": "mix4",
      "params": [
        {
          "id": 0,
          "value": 0.0
        },
        {
          "id": 1,
          "value": 0.0
        },
        {
          "id": 2,
          "value": 0.0
        },
        {
          "id": 3,
          "value": 0.0
        },
        {
          "id": 4,
          "value": 0.0
        },
        {
          "id": 5,
          "value": 0.0
        },
        {
          "id": 6,
          "value": 0.0
        },
        {
          "id": 7,
          "value": 0.0
        },
        {
          "id": 8,
          "value": 0.0
        },
        {
          "id": 9,
          "value": 0.0
        },
        {
          "id": 10,
          "value": 0.0
        },
        {
          "id": 11,
          "value": 0.0
        },
        {
          "id": 12,
          "value": 0.0
        },
        {
          "id": 13,
          "value": 0.0
        },
        {
          "id": 14,
          "value": 0.0
        },
        {
          "id": 15,
          "value": 0.0
        },
        {
          "id": 16,
          "value": 0.0
        },
        {
          "id": 17,
          "value": 0.0
        },
        {
          "id": 18,
          "value": 0.0
        },
        {
          "id": 19,
          "value": 0.0
        },
        {
          "id": 20,
          "value": 0.0
        },
        {
          "id": 21,
          "value": 0.0
        },
        {
          "id": 22,
          "value": 0.0
        },
        {
          "id": 23,
          "value": 0.0
        }
      ],
      "rightModuleId": 117,
      "data": {
        "m_channels": [
          1.0,
          0.5,
          false,
          false,
          1.0,
          0.5,
          false,
          false,
          0.512421846,
          0.5,
          false,
          false,
          1.0,
          0.5,
          false,
          false
        ],
        "m_master_volume": 0.179453716,
        "m_master_mute_trig": true,
        "m_low_power": false,
        "m_cvcompatible": false,
        "m_show_post_out": false,
        "m_post_outputs_unaffected_by_solo_mode": false,
        "m_attenuation": 1.0,
        "m_limiting_mode": 0,
        "m_poly_out": 4
      },
      "pos": [
        65,
        1
      ]
    },
    {
      "id": 111,
      "plugin": "squinkylabs-plug1",
      "version": "1.0.15",
      "model": "squinkylabs-basic",
      "params": [
        {
          "id": 0,
          "value": 3.0
        },
        {
          "id": 1,
          "value": 0.0
        },
        {
          "id": 2,
          "value": 0.0
        },
        {
          "id": 3,
          "value": 0.0
        },
        {
          "id": 4,
          "value": 50.0
        },
        {
          "id": 5,
          "value": 0.0
        },
        {
          "id": 6,
          "value": 0.0
        }
      ],
      "leftModuleId": 108,
      "rightModuleId": 112,
      "pos": [
        33,
        1
      ]
    },
    {
      "id": 112,
      "plugin": "NYSTHI",
      "version": "1.0.17",
      "model": "HotTuna",
      "params": [
        {
          "id": 0,
          "value": 0.0
        },
        {
          "id": 1,
          "value": 0.0
        },
        {
          "id": 2,
          "value": 0.0
        },
        {
          "id": 3,
          "value": 0.0
        },
        {
          "id": 4,
          "value": 0.0
        },
        {
          "id": 5,
          "value": 0.0
        }
      ],
      "leftModuleId": 111,
      "rightModuleId": 113,
      "data": {
        "m_use_DOREMI": false,
        "m_low_power_mode": false,
        "m_use_bemolle": false
      },
      "pos": [
        36,
        1
      ]
    },
    {
      "id": 113,
      "plugin": "squinkylabs-plug1",
      "version": "1.0.15",
      "model": "squinkylabs-basic",
      "params": [
        {
          "id": 0,
          "value": 3.0
        },
        {
          "id": 1,
          "value": 0.0
        },
        {
          "id": 2,
          "value": 0.0
        },
        {
          "id": 3,
          "value": 0.0
        },
        {
          "id": 4,
          "value": 50.0
        },
        {
          "id": 5,
          "value": 0.0
        },
        {
          "id": 6,
          "value": 0.0
        }
      ],
      "leftModuleId": 112,
      "rightModuleId": 114,
      "pos": [
        42,
        1
      ]
    },
    {
      "id": 114,
      "plugin": "NYSTHI",
      "version": "1.0.17",
      "model": "HotTuna",
      "params": [
        {
          "id": 0,
          "value": 0.0
        },
        {
          "id": 1,
          "value": 0.0
        },
        {
          "id": 2,
          "value": 0.0
        },
        {
          "id": 3,
          "value": 0.0
        },
        {
          "id": 4,
          "value": 0.0
        },
        {
          "id": 5,
          "value": 0.0
        }
      ],
      "leftModuleId": 113,
      "rightModuleId": 115,
      "data": {
        "m_use_DOREMI": false,
        "m_low_power_mode": false,
        "m_use_bemolle": false
      },
      "pos": [
        45,
        1
      ]
    },
    {
      "id": 115,
      "plugin": "squinkylabs-plug1",
      "version": "1.0.15",
      "model": "squinkylabs-basic",
      "params": [
        {
          "id": 0,
          "value": 3.0
        },
        {
          "id": 1,
          "value": 0.0
        },
        {
          "id": 2,
          "value": 0.0
        },
        {
          "id": 3,
          "value": 0.0
        },
        {
          "id": 4,
          "value": 50.0
        },
        {
          "id": 5,
          "value": 0.0
        },
        {
          "id": 6,
          "value": 0.0
        }
      ],
      "leftModuleId": 114,
      "rightModuleId": 116,
      "pos": [
        51,
        1
      ]
    },
    {
      "id": 116,
      "plugin": "NYSTHI",
      "version": "1.0.17",
      "model": "HotTuna",
      "params": [
        {
          "id": 0,
          "value": 0.0
        },
        {
          "id": 1,
          "value": 0.0
        },
        {
          "id": 2,
          "value": 0.0
        },
        {
          "id": 3,
          "value": 0.0
        },
        {
          "id": 4,
          "value": 0.0
        },
        {
          "id": 5,
          "value": 0.0
        }
      ],
      "leftModuleId": 115,
      "data": {
        "m_use_DOREMI": false,
        "m_low_power_mode": false,
        "m_use_bemolle": false
      },
      "pos": [
        54,
        1
      ]
    },
    {
      "id": 117,
      "plugin": "Core",
      "version": "1.1.6",
      "model": "AudioInterface",
      "params": [],
      "leftModuleId": 109,
      "data": {
        "audio": {
          "driver": 5,
          "deviceName": "Apple Inc.: Built-in Output",
          "offset": 0,
          "maxChannels": 8,
          "sampleRate": 44100,
          "blockSize": 256
        }
      },
      "pos": [
        73,
        1
      ]
    },
    {
      "id": 119,
      "plugin": "Fundamental",
      "version": "1.4.0",
      "model": "LFO",
      "params": [
        {
          "id": 0,
          "value": 1.0
        },
        {
          "id": 1,
          "value": 1.0
        },
        {
          "id": 2,
          "value": 1.10799897
        },
        {
          "id": 3,
          "value": 0.0
        },
        {
          "id": 4,
          "value": 0.0
        },
        {
          "id": 5,
          "value": 0.5
        },
        {
          "id": 6,
          "value": 0.0
        }
      ],
      "rightModuleId": 104,
      "pos": [
        0,
        1
      ]
    }
  ],
  "cables": [
    {
      "id": 181,
      "outputModuleId": 97,
      "outputId": 0,
      "inputModuleId": 98,
      "inputId": 1,
      "color": "#c9b70e"
    },
    {
      "id": 182,
      "outputModuleId": 97,
      "outputId": 1,
      "inputModuleId": 99,
      "inputId": 1,
      "color": "#c9b70e"
    },
    {
      "id": 183,
      "outputModuleId": 97,
      "outputId": 2,
      "inputModuleId": 100,
      "inputId": 1,
      "color": "#c9b70e"
    },
    {
      "id": 184,
      "outputModuleId": 97,
      "outputId": 3,
      "inputModuleId": 101,
      "inputId": 1,
      "color": "#c9b70e"
    },
    {
      "id": 185,
      "outputModuleId": 102,
      "outputId": 0,
      "inputModuleId": 97,
      "inputId": 0,
      "color": "#c9b70e"
    },
    {
      "id": 186,
      "outputModuleId": 103,
      "outputId": 0,
      "inputModuleId": 97,
      "inputId": 1,
      "color": "#0986ad"
    },
    {
      "id": 188,
      "outputModuleId": 105,
      "outputId": 0,
      "inputModuleId": 106,
      "inputId": 2,
      "color": "#c9b70e"
    },
    {
      "id": 191,
      "outputModuleId": 106,
      "outputId": 0,
      "inputModuleId": 107,
      "inputId": 1,
      "color": "#c9b70e"
    },
    {
      "id": 195,
      "outputModuleId": 111,
      "outputId": 0,
      "inputModuleId": 112,
      "inputId": 0,
      "color": "#c91847"
    },
    {
      "id": 196,
      "outputModuleId": 113,
      "outputId": 0,
      "inputModuleId": 114,
      "inputId": 0,
      "color": "#c91847"
    },
    {
      "id": 197,
      "outputModuleId": 115,
      "outputId": 0,
      "inputModuleId": 116,
      "inputId": 0,
      "color": "#c91847"
    },
    {
      "id": 199,
      "outputModuleId": 113,
      "outputId": 0,
      "inputModuleId": 109,
      "inputId": 1,
      "color": "#c91847"
    },
    {
      "id": 198,
      "outputModuleId": 115,
      "outputId": 0,
      "inputModuleId": 109,
      "inputId": 6,
      "color": "#c91847"
    },
    {
      "id": 200,
      "outputModuleId": 111,
      "outputId": 0,
      "inputModuleId": 109,
      "inputId": 0,
      "color": "#c91847"
    },
    {
      "id": 205,
      "outputModuleId": 108,
      "outputId": 0,
      "inputModuleId": 111,
      "inputId": 0,
      "color": "#c9b70e"
    },
    {
      "id": 208,
      "outputModuleId": 108,
      "outputId": 1,
      "inputModuleId": 113,
      "inputId": 0,
      "color": "#c9b70e"
    },
    {
      "id": 209,
      "outputModuleId": 108,
      "outputId": 2,
      "inputModuleId": 115,
      "inputId": 0,
      "color": "#c9b70e"
    },
    {
      "id": 210,
      "outputModuleId": 106,
      "outputId": 0,
      "inputModuleId": 108,
      "inputId": 0,
      "color": "#c9b70e"
    },
    {
      "id": 190,
      "outputModuleId": 119,
      "outputId": 3,
      "inputModuleId": 108,
      "inputId": 1,
      "color": "#0986ad"
    },
    {
      "id": 187,
      "outputModuleId": 119,
      "outputId": 3,
      "inputModuleId": 105,
      "inputId": 0,
      "color": "#0986ad"
    },
    {
      "id": 202,
      "outputModuleId": 109,
      "outputId": 1,
      "inputModuleId": 117,
      "inputId": 1,
      "color": "#0986ad"
    },
    {
      "id": 201,
      "outputModuleId": 109,
      "outputId": 0,
      "inputModuleId": 117,
      "inputId": 0,
      "color": "#c91847"
    }
  ]
}