{
  "version": "1.1.6",
  "modules": [
    {
      "id": 124,
      "plugin": "AS",
      "version": "1.0.4",
      "model": "TriggersMKI",
      "params": [
        {
          "id": 0,
          "value": 5.0
        },
        {
          "id": 1,
          "value": 0.0
        },
        {
          "id": 2,
          "value": 0.0
        }
      ],
      "rightModuleId": 125,
      "data": {
        "run": [
          0
        ]
      },
      "pos": [
        0,
        0
      ]
    },
    {
      "id": 125,
      "plugin": "AS",
      "version": "1.0.4",
      "model": "TriggersMKI",
      "params": [
        {
          "id": 0,
          "value": 5.0
        },
        {
          "id": 1,
          "value": 0.0
        },
        {
          "id": 2,
          "value": 0.0
        }
      ],
      "leftModuleId": 124,
      "rightModuleId": 126,
      "data": {
        "run": [
          0
        ]
      },
      "pos": [
        6,
        0
      ]
    },
    {
      "id": 126,
      "plugin": "Bogaudio",
      "version": "1.1.35",
      "model": "Bogaudio-Bool",
      "params": [],
      "leftModuleId": 125,
      "rightModuleId": 127,
      "data": {},
      "pos": [
        12,
        0
      ]
    },
    {
      "id": 127,
      "plugin": "SubmarineFree",
      "version": "1.1.10",
      "model": "LA-108",
      "params": [
        {
          "id": 0,
          "value": 0.0
        },
        {
          "id": 1,
          "value": 0.0
        },
        {
          "id": 2,
          "value": -2.09299946
        },
        {
          "id": 3,
          "value": 0.0
        },
        {
          "id": 4,
          "value": 1.0
        },
        {
          "id": 5,
          "value": 0.0
        },
        {
          "id": 6,
          "value": 0.0
        },
        {
          "id": 7,
          "value": 0.0
        },
        {
          "id": 8,
          "value": 1.0
        }
      ],
      "leftModuleId": 126,
      "rightModuleId": 128,
      "data": {
        "voltage0": 0.0,
        "voltage1": 10.0
      },
      "pos": [
        15,
        0
      ]
    },
    {
      "id": 128,
      "plugin": "Stoermelder-P1",
      "version": "1.8.0",
      "model": "Glue",
      "params": [
        {
          "id": 0,
          "value": 0.0
        },
        {
          "id": 1,
          "value": 0.0
        },
        {
          "id": 2,
          "value": 0.0
        },
        {
          "id": 3,
          "value": 0.0
        },
        {
          "id": 4,
          "value": 0.0
        }
      ],
      "leftModuleId": 127,
      "data": {
        "panelTheme": 1,
        "defaultSize": 16.0,
        "defaultWidth": 80.0,
        "defaultAngle": 0.0,
        "defaultOpacity": 1.0,
        "defaultColor": "#dcff46",
        "defaultFont": 0,
        "defaultFontColor": "#080808",
        "skewLabels": false,
        "labels": [
          {
            "moduleId": 127,
            "x": 253.109375,
            "y": 95.3789062,
            "angle": 0.0,
            "skew": 2.75229549,
            "opacity": 1.0,
            "width": 44.4799461,
            "size": 16.0,
            "text": "AND",
            "color": "#ff7455",
            "font": 0,
            "fontColor": "#080808"
          },
          {
            "moduleId": 127,
            "x": 253.976562,
            "y": 129.867188,
            "angle": 0.0,
            "skew": 1.46335208,
            "opacity": 1.0,
            "width": 44.4799461,
            "size": 16.0,
            "text": "OR",
            "color": "#ff7455",
            "font": 0,
            "fontColor": "#080808"
          },
          {
            "moduleId": 127,
            "x": 255.408203,
            "y": 164.355469,
            "angle": 0.0,
            "skew": -1.28873956,
            "opacity": 1.0,
            "width": 44.4799461,
            "size": 16.0,
            "text": "XOR",
            "color": "#ff7455",
            "font": 0,
            "fontColor": "#080808"
          }
        ]
      },
      "pos": [
        35,
        0
      ]
    }
  ],
  "cables": [
    {
      "id": 225,
      "outputModuleId": 124,
      "outputId": 0,
      "inputModuleId": 126,
      "inputId": 0,
      "color": "#0986ad"
    },
    {
      "id": 226,
      "outputModuleId": 125,
      "outputId": 0,
      "inputModuleId": 126,
      "inputId": 1,
      "color": "#0986ad"
    },
    {
      "id": 227,
      "outputModuleId": 124,
      "outputId": 0,
      "inputModuleId": 127,
      "inputId": 0,
      "color": "#0986ad"
    },
    {
      "id": 228,
      "outputModuleId": 125,
      "outputId": 0,
      "inputModuleId": 127,
      "inputId": 1,
      "color": "#0986ad"
    },
    {
      "id": 229,
      "outputModuleId": 126,
      "outputId": 0,
      "inputModuleId": 127,
      "inputId": 2,
      "color": "#c91847"
    },
    {
      "id": 230,
      "outputModuleId": 126,
      "outputId": 1,
      "inputModuleId": 127,
      "inputId": 3,
      "color": "#c91847"
    },
    {
      "id": 231,
      "outputModuleId": 126,
      "outputId": 2,
      "inputModuleId": 127,
      "inputId": 4,
      "color": "#c91847"
    }
  ]
}