{
  "version": "1.1.6",
  "modules": [
    {
      "id": 38,
      "plugin": "Fundamental",
      "version": "1.4.0",
      "model": "SEQ3",
      "params": [
        {
          "id": 0,
          "value": -0.263034433
        },
        {
          "id": 1,
          "value": 0.0
        },
        {
          "id": 2,
          "value": 0.0
        },
        {
          "id": 3,
          "value": 8.0
        },
        {
          "id": 4,
          "value": 0.0
        },
        {
          "id": 5,
          "value": 0.0829999968
        },
        {
          "id": 6,
          "value": 0.248999998
        },
        {
          "id": 7,
          "value": 0.331999987
        },
        {
          "id": 8,
          "value": 0.414999992
        },
        {
          "id": 9,
          "value": 0.497999996
        },
        {
          "id": 10,
          "value": 0.58099997
        },
        {
          "id": 11,
          "value": 0.663999975
        },
        {
          "id": 12,
          "value": 0.0
        },
        {
          "id": 13,
          "value": 0.58099997
        },
        {
          "id": 14,
          "value": 0.497999996
        },
        {
          "id": 15,
          "value": 0.414999992
        },
        {
          "id": 16,
          "value": 0.331999987
        },
        {
          "id": 17,
          "value": 0.248999998
        },
        {
          "id": 18,
          "value": 0.165999994
        },
        {
          "id": 19,
          "value": 0.0829999968
        },
        {
          "id": 20,
          "value": 0.0
        },
        {
          "id": 21,
          "value": 0.0
        },
        {
          "id": 22,
          "value": 0.0
        },
        {
          "id": 23,
          "value": 0.0
        },
        {
          "id": 24,
          "value": 0.0
        },
        {
          "id": 25,
          "value": 0.0
        },
        {
          "id": 26,
          "value": 0.0
        },
        {
          "id": 27,
          "value": 5.0
        },
        {
          "id": 28,
          "value": 0.0
        },
        {
          "id": 29,
          "value": 0.0
        },
        {
          "id": 30,
          "value": 0.0
        },
        {
          "id": 31,
          "value": 0.0
        },
        {
          "id": 32,
          "value": 0.0
        },
        {
          "id": 33,
          "value": 0.0
        },
        {
          "id": 34,
          "value": 0.0
        },
        {
          "id": 35,
          "value": 0.0
        }
      ],
      "rightModuleId": 47,
      "data": {
        "running": true,
        "gates": [
          0,
          1,
          1,
          1,
          1,
          1,
          1,
          1
        ]
      },
      "pos": [
        0,
        0
      ]
    },
    {
      "id": 40,
      "plugin": "Core",
      "version": "1.1.6",
      "model": "AudioInterface",
      "params": [],
      "leftModuleId": 42,
      "data": {
        "audio": {
          "driver": 5,
          "deviceName": "Apple Inc.: Built-in Output",
          "offset": 0,
          "maxChannels": 8,
          "sampleRate": 44100,
          "blockSize": 256
        }
      },
      "pos": [
        91,
        0
      ]
    },
    {
      "id": 42,
      "plugin": "GlueTheGiant",
      "version": "1.1.2",
      "model": "BusDepot",
      "params": [
        {
          "id": 0,
          "value": 0.0
        },
        {
          "id": 1,
          "value": 1.0
        },
        {
          "id": 2,
          "value": 1.0
        },
        {
          "id": 3,
          "value": 26.0
        },
        {
          "id": 4,
          "value": 26.0
        }
      ],
      "leftModuleId": 48,
      "rightModuleId": 40,
      "data": {
        "input_on": 1,
        "level_cv_filter": 1,
        "color_theme": 0,
        "fade_cv_mode": 0,
        "audition_depot": 0,
        "auditioned": 0,
        "temped": 0,
        "audition_mode": 0
      },
      "pos": [
        85,
        0
      ]
    },
    {
      "id": 43,
      "plugin": "Fundamental",
      "version": "1.4.0",
      "model": "ADSR",
      "params": [
        {
          "id": 0,
          "value": 0.125000045
        },
        {
          "id": 1,
          "value": 0.468499988
        },
        {
          "id": 2,
          "value": 0.204499841
        },
        {
          "id": 3,
          "value": 0.408000052
        }
      ],
      "leftModuleId": 53,
      "rightModuleId": 44,
      "pos": [
        61,
        0
      ]
    },
    {
      "id": 44,
      "plugin": "Fundamental",
      "version": "1.4.0",
      "model": "Scope",
      "params": [
        {
          "id": 0,
          "value": 0.0
        },
        {
          "id": 1,
          "value": 0.0
        },
        {
          "id": 2,
          "value": 0.0
        },
        {
          "id": 3,
          "value": 0.0
        },
        {
          "id": 4,
          "value": 6.0
        },
        {
          "id": 5,
          "value": 0.0
        },
        {
          "id": 6,
          "value": 0.0
        },
        {
          "id": 7,
          "value": 0.0
        }
      ],
      "leftModuleId": 43,
      "rightModuleId": 48,
      "data": {
        "lissajous": 0,
        "external": 0
      },
      "pos": [
        69,
        0
      ]
    },
    {
      "id": 47,
      "plugin": "Fundamental",
      "version": "1.4.0",
      "model": "SequentialSwitch2",
      "params": [
        {
          "id": 0,
          "value": 2.0
        }
      ],
      "leftModuleId": 38,
      "rightModuleId": 52,
      "pos": [
        22,
        0
      ]
    },
    {
      "id": 48,
      "plugin": "Fundamental",
      "version": "1.4.0",
      "model": "VCA-1",
      "params": [
        {
          "id": 0,
          "value": 1.0
        },
        {
          "id": 1,
          "value": 1.0
        }
      ],
      "leftModuleId": 44,
      "rightModuleId": 42,
      "pos": [
        82,
        0
      ]
    },
    {
      "id": 49,
      "plugin": "NYSTHI",
      "version": "1.0.17",
      "model": "HotTuna",
      "params": [
        {
          "id": 0,
          "value": 0.0
        },
        {
          "id": 1,
          "value": 0.0
        },
        {
          "id": 2,
          "value": 0.0
        },
        {
          "id": 3,
          "value": 0.0
        },
        {
          "id": 4,
          "value": 0.0
        },
        {
          "id": 5,
          "value": 0.0
        }
      ],
      "leftModuleId": 52,
      "rightModuleId": 53,
      "data": {
        "m_use_DOREMI": false,
        "m_low_power_mode": false,
        "m_use_bemolle": false
      },
      "pos": [
        35,
        0
      ]
    },
    {
      "id": 52,
      "plugin": "Bogaudio",
      "version": "1.1.35",
      "model": "Bogaudio-VCO",
      "params": [
        {
          "id": 0,
          "value": 0.749997556
        },
        {
          "id": 1,
          "value": 0.0
        },
        {
          "id": 2,
          "value": 0.0
        },
        {
          "id": 3,
          "value": 0.0
        },
        {
          "id": 4,
          "value": 0.0
        },
        {
          "id": 5,
          "value": 1.0
        },
        {
          "id": 6,
          "value": 0.0
        }
      ],
      "leftModuleId": 47,
      "rightModuleId": 49,
      "data": {
        "poly_input": 0
      },
      "pos": [
        25,
        0
      ]
    },
    {
      "id": 53,
      "plugin": "Bogaudio",
      "version": "1.1.35",
      "model": "Bogaudio-Analyzer",
      "params": [
        {
          "id": 0,
          "value": 0.0
        },
        {
          "id": 1,
          "value": 0.5
        },
        {
          "id": 2,
          "value": 1.0
        },
        {
          "id": 3,
          "value": 0.0
        },
        {
          "id": 4,
          "value": 3.0
        },
        {
          "id": 5,
          "value": -1.0
        }
      ],
      "leftModuleId": 49,
      "rightModuleId": 43,
      "data": {
        "frequency_plot": "log",
        "amplitude_plot": "decibels_80"
      },
      "pos": [
        41,
        0
      ]
    }
  ],
  "cables": [
    {
      "id": 79,
      "outputModuleId": 42,
      "outputId": 1,
      "inputModuleId": 40,
      "inputId": 1,
      "color": "#0986ad"
    },
    {
      "id": 80,
      "outputModuleId": 42,
      "outputId": 0,
      "inputModuleId": 40,
      "inputId": 0,
      "color": "#c91847"
    },
    {
      "id": 81,
      "outputModuleId": 38,
      "outputId": 0,
      "inputModuleId": 43,
      "inputId": 4,
      "color": "#0986ad"
    },
    {
      "id": 82,
      "outputModuleId": 43,
      "outputId": 0,
      "inputModuleId": 44,
      "inputId": 0,
      "color": "#0c8e15"
    },
    {
      "id": 87,
      "outputModuleId": 38,
      "outputId": 1,
      "inputModuleId": 47,
      "inputId": 2,
      "color": "#c9b70e"
    },
    {
      "id": 88,
      "outputModuleId": 38,
      "outputId": 2,
      "inputModuleId": 47,
      "inputId": 3,
      "color": "#c9b70e"
    },
    {
      "id": 92,
      "outputModuleId": 38,
      "outputId": 3,
      "inputModuleId": 47,
      "inputId": 0,
      "color": "#c9b70e"
    },
    {
      "id": 95,
      "outputModuleId": 43,
      "outputId": 0,
      "inputModuleId": 48,
      "inputId": 0,
      "color": "#0c8e15"
    },
    {
      "id": 97,
      "outputModuleId": 48,
      "outputId": 0,
      "inputModuleId": 42,
      "inputId": 2,
      "color": "#c91847"
    },
    {
      "id": 104,
      "outputModuleId": 52,
      "outputId": 3,
      "inputModuleId": 49,
      "inputId": 0,
      "color": "#c91847"
    },
    {
      "id": 105,
      "outputModuleId": 52,
      "outputId": 3,
      "inputModuleId": 48,
      "inputId": 1,
      "color": "#c91847"
    },
    {
      "id": 106,
      "outputModuleId": 47,
      "outputId": 0,
      "inputModuleId": 52,
      "inputId": 0,
      "color": "#c9b70e"
    },
    {
      "id": 108,
      "outputModuleId": 52,
      "outputId": 3,
      "inputModuleId": 53,
      "inputId": 0,
      "color": "#c91847"
    }
  ]
}