{
  "version": "1.1.6",
  "modules": [
    {
      "id": 74,
      "plugin": "Bogaudio",
      "version": "1.1.35",
      "model": "Bogaudio-VCO",
      "params": [
        {
          "id": 0,
          "value": 0.0
        },
        {
          "id": 1,
          "value": 0.0
        },
        {
          "id": 2,
          "value": 0.0
        },
        {
          "id": 3,
          "value": 0.0
        },
        {
          "id": 4,
          "value": 0.0
        },
        {
          "id": 5,
          "value": 1.0
        },
        {
          "id": 6,
          "value": 0.0
        }
      ],
      "leftModuleId": 85,
      "rightModuleId": 75,
      "data": {
        "poly_input": 0
      },
      "pos": [
        10,
        0
      ]
    },
    {
      "id": 75,
      "plugin": "Fundamental",
      "version": "1.4.0",
      "model": "VCA-1",
      "params": [
        {
          "id": 0,
          "value": 0.835499942
        },
        {
          "id": 1,
          "value": 1.0
        }
      ],
      "leftModuleId": 74,
      "rightModuleId": 76,
      "pos": [
        20,
        0
      ]
    },
    {
      "id": 76,
      "plugin": "Bogaudio",
      "version": "1.1.35",
      "model": "Bogaudio-Follow",
      "params": [
        {
          "id": 0,
          "value": 0.300000012
        },
        {
          "id": 1,
          "value": 0.0
        }
      ],
      "leftModuleId": 75,
      "rightModuleId": 77,
      "data": {},
      "pos": [
        23,
        0
      ]
    },
    {
      "id": 77,
      "plugin": "Fundamental",
      "version": "1.4.0",
      "model": "Scope",
      "params": [
        {
          "id": 0,
          "value": 0.0
        },
        {
          "id": 1,
          "value": 0.0
        },
        {
          "id": 2,
          "value": 0.0
        },
        {
          "id": 3,
          "value": 0.0
        },
        {
          "id": 4,
          "value": 6.0
        },
        {
          "id": 5,
          "value": 0.0
        },
        {
          "id": 6,
          "value": 0.0
        },
        {
          "id": 7,
          "value": 0.0
        }
      ],
      "leftModuleId": 76,
      "data": {
        "lissajous": 0,
        "external": 0
      },
      "pos": [
        26,
        0
      ]
    },
    {
      "id": 85,
      "plugin": "Fundamental",
      "version": "1.4.0",
      "model": "LFO",
      "params": [
        {
          "id": 0,
          "value": 1.0
        },
        {
          "id": 1,
          "value": 1.0
        },
        {
          "id": 2,
          "value": -1.94299984
        },
        {
          "id": 3,
          "value": 0.0
        },
        {
          "id": 4,
          "value": 0.0
        },
        {
          "id": 5,
          "value": 0.5
        },
        {
          "id": 6,
          "value": 0.0
        }
      ],
      "rightModuleId": 74,
      "pos": [
        0,
        0
      ]
    }
  ],
  "cables": [
    {
      "id": 149,
      "outputModuleId": 74,
      "outputId": 3,
      "inputModuleId": 75,
      "inputId": 1,
      "color": "#c91847"
    },
    {
      "id": 150,
      "outputModuleId": 75,
      "outputId": 0,
      "inputModuleId": 77,
      "inputId": 0,
      "color": "#c91847"
    },
    {
      "id": 151,
      "outputModuleId": 75,
      "outputId": 0,
      "inputModuleId": 76,
      "inputId": 2,
      "color": "#0c8e15"
    },
    {
      "id": 152,
      "outputModuleId": 76,
      "outputId": 0,
      "inputModuleId": 77,
      "inputId": 1,
      "color": "#0c8e15"
    },
    {
      "id": 174,
      "outputModuleId": 85,
      "outputId": 3,
      "inputModuleId": 75,
      "inputId": 0,
      "color": "#0c8e15"
    }
  ]
}