{
  "version": "1.1.6",
  "modules": [
    {
      "id": 1,
      "plugin": "Core",
      "version": "1.1.6",
      "model": "AudioInterface",
      "params": [],
      "leftModuleId": 2,
      "data": {
        "audio": {
          "driver": 5,
          "deviceName": "Apple Inc.: Built-in Output",
          "offset": 0,
          "maxChannels": 8,
          "sampleRate": 44100,
          "blockSize": 256
        }
      },
      "pos": [
        57,
        1
      ]
    },
    {
      "id": 2,
      "plugin": "Fundamental",
      "version": "1.4.0",
      "model": "VCMixer",
      "params": [
        {
          "id": 0,
          "value": 0.995999575
        },
        {
          "id": 1,
          "value": 1.0
        },
        {
          "id": 2,
          "value": 1.0
        },
        {
          "id": 3,
          "value": 0.0
        },
        {
          "id": 4,
          "value": 1.0
        }
      ],
      "rightModuleId": 1,
      "pos": [
        47,
        1
      ]
    },
    {
      "id": 86,
      "plugin": "Bogaudio",
      "version": "1.1.35",
      "model": "Bogaudio-Manual",
      "params": [
        {
          "id": 0,
          "value": 0.0
        }
      ],
      "rightModuleId": 87,
      "data": {
        "triggerOnLoad": false,
        "shouldTriggerOnLoad": true
      },
      "pos": [
        4,
        0
      ]
    },
    {
      "id": 87,
      "plugin": "Fundamental",
      "version": "1.4.0",
      "model": "VCO",
      "params": [
        {
          "id": 0,
          "value": 1.0
        },
        {
          "id": 1,
          "value": 1.0
        },
        {
          "id": 2,
          "value": 0.0
        },
        {
          "id": 3,
          "value": 0.0
        },
        {
          "id": 4,
          "value": 0.0
        },
        {
          "id": 5,
          "value": 0.5
        },
        {
          "id": 6,
          "value": 0.0
        }
      ],
      "leftModuleId": 86,
      "rightModuleId": 88,
      "pos": [
        7,
        0
      ]
    },
    {
      "id": 88,
      "plugin": "NYSTHI",
      "version": "1.0.17",
      "model": "PolyLPG",
      "params": [
        {
          "id": 0,
          "value": 0.0
        },
        {
          "id": 1,
          "value": 0.99849999
        },
        {
          "id": 2,
          "value": 0.5
        },
        {
          "id": 3,
          "value": 0.0
        },
        {
          "id": 4,
          "value": 0.0
        },
        {
          "id": 5,
          "value": 0.0
        }
      ],
      "leftModuleId": 87,
      "data": {
        "m_VCALP_mode": 1,
        "m_vactrol_speed0": 2,
        "m_vactrol_lineartities0": false
      },
      "pos": [
        17,
        0
      ]
    },
    {
      "id": 89,
      "plugin": "Fundamental",
      "version": "1.4.0",
      "model": "VCO",
      "params": [
        {
          "id": 0,
          "value": 1.0
        },
        {
          "id": 1,
          "value": 1.0
        },
        {
          "id": 2,
          "value": 0.0
        },
        {
          "id": 3,
          "value": 0.0
        },
        {
          "id": 4,
          "value": 0.0
        },
        {
          "id": 5,
          "value": 0.5
        },
        {
          "id": 6,
          "value": 0.0
        }
      ],
      "leftModuleId": 90,
      "rightModuleId": 91,
      "pos": [
        7,
        1
      ]
    },
    {
      "id": 90,
      "plugin": "Bogaudio",
      "version": "1.1.35",
      "model": "Bogaudio-Manual",
      "params": [
        {
          "id": 0,
          "value": 0.0
        }
      ],
      "rightModuleId": 89,
      "data": {
        "triggerOnLoad": false,
        "shouldTriggerOnLoad": true
      },
      "pos": [
        4,
        1
      ]
    },
    {
      "id": 91,
      "plugin": "Fundamental",
      "version": "1.4.0",
      "model": "VCA-1",
      "params": [
        {
          "id": 0,
          "value": 1.0
        },
        {
          "id": 1,
          "value": 1.0
        }
      ],
      "leftModuleId": 89,
      "pos": [
        17,
        1
      ]
    },
    {
      "id": 92,
      "plugin": "Fundamental",
      "version": "1.4.0",
      "model": "LFO",
      "params": [
        {
          "id": 0,
          "value": 1.0
        },
        {
          "id": 1,
          "value": 1.0
        },
        {
          "id": 2,
          "value": -0.890000165
        },
        {
          "id": 3,
          "value": 0.0
        },
        {
          "id": 4,
          "value": 0.0
        },
        {
          "id": 5,
          "value": 0.0629199892
        },
        {
          "id": 6,
          "value": 0.0
        }
      ],
      "leftModuleId": 95,
      "rightModuleId": 93,
      "pos": [
        3,
        2
      ]
    },
    {
      "id": 93,
      "plugin": "Fundamental",
      "version": "1.4.0",
      "model": "VCO",
      "params": [
        {
          "id": 0,
          "value": 1.0
        },
        {
          "id": 1,
          "value": 1.0
        },
        {
          "id": 2,
          "value": 0.0
        },
        {
          "id": 3,
          "value": 0.0
        },
        {
          "id": 4,
          "value": 0.0
        },
        {
          "id": 5,
          "value": 0.5
        },
        {
          "id": 6,
          "value": 0.0
        }
      ],
      "leftModuleId": 92,
      "rightModuleId": 94,
      "pos": [
        13,
        2
      ]
    },
    {
      "id": 94,
      "plugin": "NYSTHI",
      "version": "1.0.17",
      "model": "PolyLPG",
      "params": [
        {
          "id": 0,
          "value": 0.0
        },
        {
          "id": 1,
          "value": 0.774500132
        },
        {
          "id": 2,
          "value": 0.5
        },
        {
          "id": 3,
          "value": 0.0
        },
        {
          "id": 4,
          "value": 0.0
        },
        {
          "id": 5,
          "value": 0.0
        }
      ],
      "leftModuleId": 93,
      "rightModuleId": 96,
      "data": {
        "m_VCALP_mode": 1,
        "m_vactrol_speed0": 1,
        "m_vactrol_lineartities0": false
      },
      "pos": [
        23,
        2
      ]
    },
    {
      "id": 95,
      "plugin": "Stoermelder-P1",
      "version": "1.8.0",
      "model": "Glue",
      "params": [
        {
          "id": 0,
          "value": 0.0
        },
        {
          "id": 1,
          "value": 0.0
        },
        {
          "id": 2,
          "value": 0.0
        },
        {
          "id": 3,
          "value": 0.0
        },
        {
          "id": 4,
          "value": 0.0
        }
      ],
      "rightModuleId": 92,
      "data": {
        "panelTheme": 1,
        "defaultSize": 16.0,
        "defaultWidth": 80.0,
        "defaultAngle": 0.0,
        "defaultOpacity": 1.0,
        "defaultColor": "#dcff46",
        "defaultFont": 0,
        "defaultFontColor": "#080808",
        "skewLabels": false,
        "labels": [
          {
            "moduleId": 94,
            "x": -18.5371094,
            "y": 6.59375,
            "angle": 0.0,
            "skew": 8.34342575,
            "opacity": 1.0,
            "width": 100.160034,
            "size": 16.0,
            "text": "Low Pass Gate",
            "color": "#ff65a3",
            "font": 0,
            "fontColor": "#080808"
          },
          {
            "moduleId": 88,
            "x": -14.5039062,
            "y": 4.01171875,
            "angle": 0.0,
            "skew": 7.95930004,
            "opacity": 1.0,
            "width": 100.160034,
            "size": 16.0,
            "text": "Low Pass Gate",
            "color": "#ff65a3",
            "font": 0,
            "fontColor": "#080808"
          }
        ]
      },
      "pos": [
        0,
        2
      ]
    },
    {
      "id": 96,
      "plugin": "Fundamental",
      "version": "1.4.0",
      "model": "Scope",
      "params": [
        {
          "id": 0,
          "value": -1.0
        },
        {
          "id": 1,
          "value": -10.0
        },
        {
          "id": 2,
          "value": 0.0
        },
        {
          "id": 3,
          "value": 3.44999909
        },
        {
          "id": 4,
          "value": 6.0
        },
        {
          "id": 5,
          "value": 0.0
        },
        {
          "id": 6,
          "value": 0.0
        },
        {
          "id": 7,
          "value": 0.0
        }
      ],
      "leftModuleId": 94,
      "data": {
        "lissajous": 0,
        "external": 0
      },
      "pos": [
        27,
        2
      ]
    },
    {
      "id": 97,
      "plugin": "Fundamental",
      "version": "1.4.0",
      "model": "VCO",
      "params": [
        {
          "id": 0,
          "value": 1.0
        },
        {
          "id": 1,
          "value": 1.0
        },
        {
          "id": 2,
          "value": 0.0
        },
        {
          "id": 3,
          "value": 0.0
        },
        {
          "id": 4,
          "value": 0.0
        },
        {
          "id": 5,
          "value": 0.5
        },
        {
          "id": 6,
          "value": 0.0
        }
      ],
      "leftModuleId": 100,
      "rightModuleId": 98,
      "pos": [
        8,
        3
      ]
    },
    {
      "id": 98,
      "plugin": "NYSTHI",
      "version": "1.0.17",
      "model": "AttackDecay",
      "params": [
        {
          "id": 0,
          "value": 0.11550004
        },
        {
          "id": 1,
          "value": 0.514000058
        },
        {
          "id": 2,
          "value": 0.0
        },
        {
          "id": 3,
          "value": 1.0
        },
        {
          "id": 4,
          "value": 0.5
        },
        {
          "id": 5,
          "value": 0.0
        }
      ],
      "leftModuleId": 97,
      "rightModuleId": 99,
      "data": {
        "m_looped": false
      },
      "pos": [
        18,
        3
      ]
    },
    {
      "id": 99,
      "plugin": "NYSTHI",
      "version": "1.0.17",
      "model": "PolyLPG",
      "params": [
        {
          "id": 0,
          "value": 0.0
        },
        {
          "id": 1,
          "value": 0.774500132
        },
        {
          "id": 2,
          "value": 0.5
        },
        {
          "id": 3,
          "value": 0.0
        },
        {
          "id": 4,
          "value": 0.0
        },
        {
          "id": 5,
          "value": 0.0
        }
      ],
      "leftModuleId": 98,
      "rightModuleId": 101,
      "data": {
        "m_VCALP_mode": 1,
        "m_vactrol_speed0": 1,
        "m_vactrol_lineartities0": false
      },
      "pos": [
        20,
        3
      ]
    },
    {
      "id": 100,
      "plugin": "Bogaudio",
      "version": "1.1.35",
      "model": "Bogaudio-Manual",
      "params": [
        {
          "id": 0,
          "value": 0.0
        }
      ],
      "rightModuleId": 97,
      "data": {
        "triggerOnLoad": false,
        "shouldTriggerOnLoad": true
      },
      "pos": [
        5,
        3
      ]
    },
    {
      "id": 101,
      "plugin": "Fundamental",
      "version": "1.4.0",
      "model": "Scope",
      "params": [
        {
          "id": 0,
          "value": 0.0
        },
        {
          "id": 1,
          "value": 0.0
        },
        {
          "id": 2,
          "value": 0.0
        },
        {
          "id": 3,
          "value": 0.0
        },
        {
          "id": 4,
          "value": 6.0
        },
        {
          "id": 5,
          "value": 0.0
        },
        {
          "id": 6,
          "value": 0.0
        },
        {
          "id": 7,
          "value": 0.0
        }
      ],
      "leftModuleId": 99,
      "data": {
        "lissajous": 0,
        "external": 0
      },
      "pos": [
        24,
        3
      ]
    }
  ],
  "cables": [
    {
      "id": 177,
      "outputModuleId": 2,
      "outputId": 0,
      "inputModuleId": 1,
      "inputId": 0,
      "color": "#0986ad"
    },
    {
      "id": 185,
      "outputModuleId": 2,
      "outputId": 0,
      "inputModuleId": 1,
      "inputId": 1,
      "color": "#c91847"
    },
    {
      "id": 186,
      "outputModuleId": 91,
      "outputId": 0,
      "inputModuleId": 2,
      "inputId": 2,
      "color": "#c91847"
    },
    {
      "id": 187,
      "outputModuleId": 89,
      "outputId": 2,
      "inputModuleId": 91,
      "inputId": 1,
      "color": "#c91847"
    },
    {
      "id": 188,
      "outputModuleId": 90,
      "outputId": 3,
      "inputModuleId": 91,
      "inputId": 0,
      "color": "#0986ad"
    },
    {
      "id": 189,
      "outputModuleId": 87,
      "outputId": 2,
      "inputModuleId": 88,
      "inputId": 0,
      "color": "#c91847"
    },
    {
      "id": 190,
      "outputModuleId": 88,
      "outputId": 0,
      "inputModuleId": 2,
      "inputId": 1,
      "color": "#c91847"
    },
    {
      "id": 191,
      "outputModuleId": 86,
      "outputId": 0,
      "inputModuleId": 88,
      "inputId": 1,
      "color": "#0c8e15"
    },
    {
      "id": 192,
      "outputModuleId": 92,
      "outputId": 3,
      "inputModuleId": 96,
      "inputId": 0,
      "color": "#c91847"
    },
    {
      "id": 193,
      "outputModuleId": 94,
      "outputId": 0,
      "inputModuleId": 96,
      "inputId": 1,
      "color": "#c91847"
    },
    {
      "id": 194,
      "outputModuleId": 93,
      "outputId": 2,
      "inputModuleId": 94,
      "inputId": 0,
      "color": "#c91847"
    },
    {
      "id": 195,
      "outputModuleId": 92,
      "outputId": 3,
      "inputModuleId": 94,
      "inputId": 1,
      "color": "#0c8e15"
    },
    {
      "id": 196,
      "outputModuleId": 94,
      "outputId": 0,
      "inputModuleId": 2,
      "inputId": 3,
      "color": "#c91847"
    },
    {
      "id": 197,
      "outputModuleId": 99,
      "outputId": 0,
      "inputModuleId": 2,
      "inputId": 4,
      "color": "#c91847"
    },
    {
      "id": 198,
      "outputModuleId": 97,
      "outputId": 2,
      "inputModuleId": 99,
      "inputId": 0,
      "color": "#c91847"
    },
    {
      "id": 199,
      "outputModuleId": 98,
      "outputId": 0,
      "inputModuleId": 99,
      "inputId": 1,
      "color": "#0c8e15"
    },
    {
      "id": 200,
      "outputModuleId": 100,
      "outputId": 0,
      "inputModuleId": 98,
      "inputId": 3,
      "color": "#0986ad"
    },
    {
      "id": 201,
      "outputModuleId": 99,
      "outputId": 0,
      "inputModuleId": 101,
      "inputId": 0,
      "color": "#c91847"
    },
    {
      "id": 202,
      "outputModuleId": 98,
      "outputId": 0,
      "inputModuleId": 101,
      "inputId": 1,
      "color": "#0c8e15"
    }
  ]
}