{
  "version": "1.1.6",
  "modules": [
    {
      "id": 1,
      "plugin": "Core",
      "version": "1.1.6",
      "model": "AudioInterface",
      "params": [],
      "leftModuleId": 2,
      "data": {
        "audio": {
          "driver": 5,
          "deviceName": "Apple Inc.: Built-in Output",
          "offset": 0,
          "maxChannels": 8,
          "sampleRate": 44100,
          "blockSize": 256
        }
      },
      "pos": [
        59,
        0
      ]
    },
    {
      "id": 2,
      "plugin": "Fundamental",
      "version": "1.4.0",
      "model": "VCMixer",
      "params": [
        {
          "id": 0,
          "value": 1.0
        },
        {
          "id": 1,
          "value": 1.0
        },
        {
          "id": 2,
          "value": 1.0
        },
        {
          "id": 3,
          "value": 1.0
        },
        {
          "id": 4,
          "value": 1.0
        }
      ],
      "leftModuleId": 40,
      "rightModuleId": 1,
      "pos": [
        49,
        0
      ]
    },
    {
      "id": 37,
      "plugin": "Fundamental",
      "version": "1.4.0",
      "model": "VCO",
      "params": [
        {
          "id": 0,
          "value": 1.0
        },
        {
          "id": 1,
          "value": 1.0
        },
        {
          "id": 2,
          "value": -25.272007
        },
        {
          "id": 3,
          "value": 0.0
        },
        {
          "id": 4,
          "value": 0.0
        },
        {
          "id": 5,
          "value": 0.5
        },
        {
          "id": 6,
          "value": 0.0
        }
      ],
      "leftModuleId": 41,
      "rightModuleId": 38,
      "pos": [
        11,
        0
      ]
    },
    {
      "id": 38,
      "plugin": "Fundamental",
      "version": "1.4.0",
      "model": "VCF",
      "params": [
        {
          "id": 0,
          "value": 0.5
        },
        {
          "id": 1,
          "value": 0.5
        },
        {
          "id": 2,
          "value": 0.209999979
        },
        {
          "id": 3,
          "value": 0.47300005
        },
        {
          "id": 4,
          "value": 0.0
        }
      ],
      "leftModuleId": 37,
      "rightModuleId": 42,
      "pos": [
        21,
        0
      ]
    },
    {
      "id": 39,
      "plugin": "Fundamental",
      "version": "1.4.0",
      "model": "VCA-1",
      "params": [
        {
          "id": 0,
          "value": 1.0
        },
        {
          "id": 1,
          "value": 1.0
        }
      ],
      "rightModuleId": 40,
      "pos": [
        38,
        0
      ]
    },
    {
      "id": 40,
      "plugin": "Fundamental",
      "version": "1.4.0",
      "model": "ADSR",
      "params": [
        {
          "id": 0,
          "value": 0.111499876
        },
        {
          "id": 1,
          "value": 0.394999981
        },
        {
          "id": 2,
          "value": 0.5
        },
        {
          "id": 3,
          "value": 0.5
        }
      ],
      "leftModuleId": 39,
      "rightModuleId": 2,
      "pos": [
        41,
        0
      ]
    },
    {
      "id": 41,
      "plugin": "Core",
      "version": "1.1.6",
      "model": "MIDIToCVInterface",
      "params": [],
      "leftModuleId": 43,
      "rightModuleId": 37,
      "data": {
        "channels": 1,
        "polyMode": 0,
        "clockDivision": 24,
        "lastPitch": 8192,
        "lastMod": 0,
        "midi": {
          "driver": -11,
          "deviceName": "QWERTY keyboard (US)",
          "channel": -1
        }
      },
      "pos": [
        3,
        0
      ]
    },
    {
      "id": 42,
      "plugin": "Fundamental",
      "version": "1.4.0",
      "model": "ADSR",
      "params": [
        {
          "id": 0,
          "value": 0.615499854
        },
        {
          "id": 1,
          "value": 0.108499914
        },
        {
          "id": 2,
          "value": 0.612500012
        },
        {
          "id": 3,
          "value": 0.891499996
        }
      ],
      "leftModuleId": 38,
      "pos": [
        29,
        0
      ]
    },
    {
      "id": 43,
      "plugin": "Stoermelder-P1",
      "version": "1.8.0",
      "model": "Glue",
      "params": [
        {
          "id": 0,
          "value": 0.0
        },
        {
          "id": 1,
          "value": 0.0
        },
        {
          "id": 2,
          "value": 0.0
        },
        {
          "id": 3,
          "value": 0.0
        },
        {
          "id": 4,
          "value": 0.0
        }
      ],
      "rightModuleId": 41,
      "data": {
        "panelTheme": 1,
        "defaultSize": 16.0,
        "defaultWidth": 80.0,
        "defaultAngle": 0.0,
        "defaultOpacity": 1.0,
        "defaultColor": "#dcff46",
        "defaultFont": 0,
        "defaultFontColor": "#080808",
        "skewLabels": false,
        "labels": [
          {
            "moduleId": 37,
            "x": 10.5039062,
            "y": 6.58203125,
            "angle": 0.0,
            "skew": -4.20307159,
            "opacity": 1.0,
            "width": 135.200058,
            "size": 16.0,
            "text": "Primary Oscilator",
            "color": "#dcff46",
            "font": 0,
            "fontColor": "#080808"
          },
          {
            "moduleId": 38,
            "x": 14.5703125,
            "y": 8.59765625,
            "angle": 0.0,
            "skew": 2.45693421,
            "opacity": 1.0,
            "width": 80.0,
            "size": 16.0,
            "text": "Filter",
            "color": "#dcff46",
            "font": 0,
            "fontColor": "#080808"
          },
          {
            "moduleId": 42,
            "x": 4.32421875,
            "y": 4.5703125,
            "angle": 0.0,
            "skew": -3.11246395,
            "opacity": 1.0,
            "width": 109.600044,
            "size": 16.0,
            "text": "Filter Envelope",
            "color": "#dcff46",
            "font": 0,
            "fontColor": "#080808"
          },
          {
            "moduleId": 40,
            "x": 5.58007812,
            "y": 1.546875,
            "angle": 0.0,
            "skew": 3.05395555,
            "opacity": 1.0,
            "width": 111.520081,
            "size": 16.0,
            "text": "Sound Envelope",
            "color": "#dcff46",
            "font": 0,
            "fontColor": "#080808"
          }
        ]
      },
      "pos": [
        0,
        0
      ]
    }
  ],
  "cables": [
    {
      "id": 85,
      "outputModuleId": 2,
      "outputId": 0,
      "inputModuleId": 1,
      "inputId": 0,
      "color": "#c91847"
    },
    {
      "id": 86,
      "outputModuleId": 2,
      "outputId": 0,
      "inputModuleId": 1,
      "inputId": 1,
      "color": "#0986ad"
    },
    {
      "id": 87,
      "outputModuleId": 37,
      "outputId": 3,
      "inputModuleId": 38,
      "inputId": 3,
      "color": "#c91847"
    },
    {
      "id": 88,
      "outputModuleId": 38,
      "outputId": 0,
      "inputModuleId": 39,
      "inputId": 1,
      "color": "#c91847"
    },
    {
      "id": 89,
      "outputModuleId": 39,
      "outputId": 0,
      "inputModuleId": 2,
      "inputId": 1,
      "color": "#c91847"
    },
    {
      "id": 90,
      "outputModuleId": 40,
      "outputId": 0,
      "inputModuleId": 39,
      "inputId": 0,
      "color": "#0c8e15"
    },
    {
      "id": 91,
      "outputModuleId": 41,
      "outputId": 0,
      "inputModuleId": 37,
      "inputId": 0,
      "color": "#c9b70e"
    },
    {
      "id": 92,
      "outputModuleId": 41,
      "outputId": 1,
      "inputModuleId": 40,
      "inputId": 4,
      "color": "#0986ad"
    },
    {
      "id": 93,
      "outputModuleId": 41,
      "outputId": 1,
      "inputModuleId": 42,
      "inputId": 4,
      "color": "#0986ad"
    },
    {
      "id": 94,
      "outputModuleId": 42,
      "outputId": 0,
      "inputModuleId": 38,
      "inputId": 0,
      "color": "#0c8e15"
    }
  ]
}