{
  "version": "1.1.6",
  "modules": [
    {
      "id": 1,
      "plugin": "Core",
      "version": "1.1.6",
      "model": "AudioInterface",
      "params": [],
      "leftModuleId": 2,
      "data": {
        "audio": {
          "driver": 5,
          "deviceName": "Apple Inc.: Built-in Output",
          "offset": 0,
          "maxChannels": 8,
          "sampleRate": 44100,
          "blockSize": 256
        }
      },
      "pos": [
        61,
        0
      ]
    },
    {
      "id": 2,
      "plugin": "Fundamental",
      "version": "1.4.0",
      "model": "VCMixer",
      "params": [
        {
          "id": 0,
          "value": 1.02000022
        },
        {
          "id": 1,
          "value": 1.0
        },
        {
          "id": 2,
          "value": 1.0
        },
        {
          "id": 3,
          "value": 1.0
        },
        {
          "id": 4,
          "value": 1.0
        }
      ],
      "leftModuleId": 47,
      "rightModuleId": 1,
      "pos": [
        51,
        0
      ]
    },
    {
      "id": 44,
      "plugin": "Fundamental",
      "version": "1.4.0",
      "model": "SEQ3",
      "params": [
        {
          "id": 0,
          "value": 2.93600059
        },
        {
          "id": 1,
          "value": 0.0
        },
        {
          "id": 2,
          "value": 0.0
        },
        {
          "id": 3,
          "value": 8.0
        },
        {
          "id": 4,
          "value": 0.0
        },
        {
          "id": 5,
          "value": 0.854999781
        },
        {
          "id": 6,
          "value": 1.16999984
        },
        {
          "id": 7,
          "value": 0.254999995
        },
        {
          "id": 8,
          "value": 1.48500001
        },
        {
          "id": 9,
          "value": 0.0
        },
        {
          "id": 10,
          "value": 0.0
        },
        {
          "id": 11,
          "value": 0.930000067
        },
        {
          "id": 12,
          "value": 1.82999969
        },
        {
          "id": 13,
          "value": 0.0
        },
        {
          "id": 14,
          "value": 1.8749994
        },
        {
          "id": 15,
          "value": 0.0
        },
        {
          "id": 16,
          "value": 2.03999996
        },
        {
          "id": 17,
          "value": 0.0
        },
        {
          "id": 18,
          "value": 1.96499991
        },
        {
          "id": 19,
          "value": 0.0
        },
        {
          "id": 20,
          "value": 0.0
        },
        {
          "id": 21,
          "value": 10.0
        },
        {
          "id": 22,
          "value": 0.0
        },
        {
          "id": 23,
          "value": 10.0
        },
        {
          "id": 24,
          "value": 0.0
        },
        {
          "id": 25,
          "value": 10.0
        },
        {
          "id": 26,
          "value": 10.0
        },
        {
          "id": 27,
          "value": 0.0
        },
        {
          "id": 28,
          "value": 0.0
        },
        {
          "id": 29,
          "value": 0.0
        },
        {
          "id": 30,
          "value": 0.0
        },
        {
          "id": 31,
          "value": 0.0
        },
        {
          "id": 32,
          "value": 0.0
        },
        {
          "id": 33,
          "value": 0.0
        },
        {
          "id": 34,
          "value": 0.0
        },
        {
          "id": 35,
          "value": 0.0
        }
      ],
      "rightModuleId": 48,
      "data": {
        "running": true,
        "gates": [
          1,
          1,
          1,
          0,
          1,
          0,
          1,
          0
        ]
      },
      "pos": [
        0,
        0
      ]
    },
    {
      "id": 45,
      "plugin": "Fundamental",
      "version": "1.4.0",
      "model": "VCO",
      "params": [
        {
          "id": 0,
          "value": 0.0
        },
        {
          "id": 1,
          "value": 1.0
        },
        {
          "id": 2,
          "value": -38.1240044
        },
        {
          "id": 3,
          "value": 0.0
        },
        {
          "id": 4,
          "value": 0.501000106
        },
        {
          "id": 5,
          "value": 0.00999999978
        },
        {
          "id": 6,
          "value": 0.319500208
        }
      ],
      "leftModuleId": 48,
      "rightModuleId": 46,
      "pos": [
        25,
        0
      ]
    },
    {
      "id": 46,
      "plugin": "Fundamental",
      "version": "1.4.0",
      "model": "VCF",
      "params": [
        {
          "id": 0,
          "value": 0.799999774
        },
        {
          "id": 1,
          "value": 0.5
        },
        {
          "id": 2,
          "value": 0.0
        },
        {
          "id": 3,
          "value": -0.273000002
        },
        {
          "id": 4,
          "value": 0.0
        }
      ],
      "leftModuleId": 45,
      "rightModuleId": 47,
      "pos": [
        35,
        0
      ]
    },
    {
      "id": 47,
      "plugin": "Fundamental",
      "version": "1.4.0",
      "model": "ADSR",
      "params": [
        {
          "id": 0,
          "value": 0.193499908
        },
        {
          "id": 1,
          "value": 0.0
        },
        {
          "id": 2,
          "value": 0.501000047
        },
        {
          "id": 3,
          "value": 0.307500035
        }
      ],
      "leftModuleId": 46,
      "rightModuleId": 2,
      "pos": [
        43,
        0
      ]
    },
    {
      "id": 48,
      "plugin": "Fundamental",
      "version": "1.4.0",
      "model": "Quantizer",
      "params": [],
      "leftModuleId": 44,
      "rightModuleId": 45,
      "data": {
        "enabledNotes": [
          true,
          false,
          true,
          true,
          false,
          true,
          false,
          true,
          true,
          false,
          true,
          false
        ]
      },
      "pos": [
        22,
        0
      ]
    },
    {
      "id": 49,
      "plugin": "Fundamental",
      "version": "1.4.0",
      "model": "Random",
      "params": [
        {
          "id": 0,
          "value": 1.0
        },
        {
          "id": 1,
          "value": 1.0
        },
        {
          "id": 2,
          "value": 1.0
        },
        {
          "id": 3,
          "value": 0.0
        }
      ],
      "leftModuleId": 50,
      "pos": [
        22,
        1
      ]
    },
    {
      "id": 50,
      "plugin": "Fundamental",
      "version": "1.4.0",
      "model": "SEQ3",
      "params": [
        {
          "id": 0,
          "value": 3.11600065
        },
        {
          "id": 1,
          "value": 0.0
        },
        {
          "id": 2,
          "value": 0.0
        },
        {
          "id": 3,
          "value": 4.0
        },
        {
          "id": 4,
          "value": 0.0
        },
        {
          "id": 5,
          "value": 0.854999781
        },
        {
          "id": 6,
          "value": 1.16999984
        },
        {
          "id": 7,
          "value": 0.254999995
        },
        {
          "id": 8,
          "value": 1.48500001
        },
        {
          "id": 9,
          "value": 0.0
        },
        {
          "id": 10,
          "value": 0.0
        },
        {
          "id": 11,
          "value": 0.930000067
        },
        {
          "id": 12,
          "value": 1.82999969
        },
        {
          "id": 13,
          "value": 0.0
        },
        {
          "id": 14,
          "value": 1.8749994
        },
        {
          "id": 15,
          "value": 0.0
        },
        {
          "id": 16,
          "value": 2.03999996
        },
        {
          "id": 17,
          "value": 0.0
        },
        {
          "id": 18,
          "value": 1.96499991
        },
        {
          "id": 19,
          "value": 0.0
        },
        {
          "id": 20,
          "value": 0.0
        },
        {
          "id": 21,
          "value": 10.0
        },
        {
          "id": 22,
          "value": 0.0
        },
        {
          "id": 23,
          "value": 10.0
        },
        {
          "id": 24,
          "value": 0.0
        },
        {
          "id": 25,
          "value": 10.0
        },
        {
          "id": 26,
          "value": 10.0
        },
        {
          "id": 27,
          "value": 0.0
        },
        {
          "id": 28,
          "value": 0.0
        },
        {
          "id": 29,
          "value": 0.0
        },
        {
          "id": 30,
          "value": 0.0
        },
        {
          "id": 31,
          "value": 0.0
        },
        {
          "id": 32,
          "value": 0.0
        },
        {
          "id": 33,
          "value": 0.0
        },
        {
          "id": 34,
          "value": 0.0
        },
        {
          "id": 35,
          "value": 0.0
        }
      ],
      "rightModuleId": 49,
      "data": {
        "running": true,
        "gates": [
          1,
          1,
          1,
          0,
          1,
          0,
          1,
          0
        ]
      },
      "pos": [
        0,
        1
      ]
    }
  ],
  "cables": [
    {
      "id": 105,
      "outputModuleId": 2,
      "outputId": 0,
      "inputModuleId": 1,
      "inputId": 0,
      "color": "#c91847"
    },
    {
      "id": 106,
      "outputModuleId": 2,
      "outputId": 0,
      "inputModuleId": 1,
      "inputId": 1,
      "color": "#0986ad"
    },
    {
      "id": 109,
      "outputModuleId": 47,
      "outputId": 0,
      "inputModuleId": 2,
      "inputId": 5,
      "color": "#0c8e15"
    },
    {
      "id": 110,
      "outputModuleId": 44,
      "outputId": 1,
      "inputModuleId": 48,
      "inputId": 0,
      "color": "#c9b70e"
    },
    {
      "id": 111,
      "outputModuleId": 44,
      "outputId": 0,
      "inputModuleId": 47,
      "inputId": 4,
      "color": "#0986ad"
    },
    {
      "id": 112,
      "outputModuleId": 48,
      "outputId": 0,
      "inputModuleId": 45,
      "inputId": 0,
      "color": "#0c8e15"
    },
    {
      "id": 115,
      "outputModuleId": 44,
      "outputId": 2,
      "inputModuleId": 46,
      "inputId": 0,
      "color": "#0c8e15"
    },
    {
      "id": 116,
      "outputModuleId": 44,
      "outputId": 3,
      "inputModuleId": 47,
      "inputId": 3,
      "color": "#0c8e15"
    },
    {
      "id": 118,
      "outputModuleId": 44,
      "outputId": 0,
      "inputModuleId": 49,
      "inputId": 0,
      "color": "#0986ad"
    },
    {
      "id": 120,
      "outputModuleId": 49,
      "outputId": 2,
      "inputModuleId": 46,
      "inputId": 2,
      "color": "#0c8e15"
    },
    {
      "id": 122,
      "outputModuleId": 44,
      "outputId": 0,
      "inputModuleId": 50,
      "inputId": 1,
      "color": "#0986ad"
    },
    {
      "id": 123,
      "outputModuleId": 50,
      "outputId": 1,
      "inputModuleId": 45,
      "inputId": 1,
      "color": "#0c8e15"
    },
    {
      "id": 107,
      "outputModuleId": 45,
      "outputId": 2,
      "inputModuleId": 46,
      "inputId": 3,
      "color": "#c91847"
    },
    {
      "id": 108,
      "outputModuleId": 46,
      "outputId": 0,
      "inputModuleId": 2,
      "inputId": 1,
      "color": "#c91847"
    }
  ]
}